<svg width="64" height="54" viewBox="0 0 64 54" fill="none" xmlns="http://www.w3.org/2000/svg">
<rect x="1" y="1" width="62" height="52" rx="7" stroke="black" stroke-opacity="0.1" stroke-width="2"/>
<g clip-path="url(#clip0_342_6979)">
<path d="M42.459 22.1001L35.535 15.4641C34.5966 14.5356 33.3307 14.0136 32.0106 14.0108C30.6905 14.0079 29.4223 14.5246 28.48 15.4491L21.54 22.1001C21.0546 22.5676 20.6682 23.1279 20.4036 23.7477C20.1391 24.3675 20.0018 25.0342 20 25.7081V33.0001C20.0016 34.3257 20.5289 35.5966 21.4662 36.5339C22.4036 37.4712 23.6744 37.9985 25 38.0001H39C40.3256 37.9985 41.5964 37.4712 42.5338 36.5339C43.4711 35.5966 43.9984 34.3257 44 33.0001V25.7081C43.9982 25.0341 43.8609 24.3673 43.5962 23.7475C43.3314 23.1277 42.9447 22.5674 42.459 22.1001ZM29.879 16.8781C30.446 16.3161 31.213 16.0021 32.0113 16.0051C32.8097 16.0081 33.5742 16.3279 34.137 16.8941L40.884 23.3581L34.121 30.1221C33.5493 30.6671 32.7898 30.9711 32 30.9711C31.2102 30.9711 30.4507 30.6671 29.879 30.1221L23.115 23.3581L29.879 16.8781ZM42 33.0001C42 33.7958 41.6839 34.5588 41.1213 35.1214C40.5587 35.684 39.7956 36.0001 39 36.0001H25C24.2044 36.0001 23.4413 35.684 22.8787 35.1214C22.3161 34.5588 22 33.7958 22 33.0001V25.7081C22.001 25.514 22.0208 25.3204 22.059 25.1301L28.465 31.5361C29.4057 32.4676 30.6761 32.9902 32 32.9902C33.3239 32.9902 34.5943 32.4676 35.535 31.5361L41.941 25.1301C41.9792 25.3204 41.999 25.514 42 25.7081V33.0001Z" fill="#464645"/>
</g>
<defs>
<clipPath id="clip0_342_6979">
<rect width="24" height="24" fill="white" transform="translate(20 14)"/>
</clipPath>
</defs>
</svg>
