<svg width="38" height="38" viewBox="0 0 38 38" fill="none" xmlns="http://www.w3.org/2000/svg">
<path d="M38 0V38H0V0H38Z" fill="white" fill-opacity="0.01"/>
<path fill-rule="evenodd" clip-rule="evenodd" d="M34.8334 18.9993C34.8334 27.0937 28.7587 33.7692 20.9186 34.7183L20.9185 34.7181C20.9188 34.7181 20.9191 34.718 20.9195 34.718V23.837H25.2006L26.0873 18.999H20.9124V17.2881C20.9124 14.7293 21.9134 13.7476 24.5101 13.7476C25.3141 13.7476 25.9668 13.767 26.3406 13.8048V9.42161C25.6308 9.22545 23.9023 9.0293 22.9013 9.0293C17.6129 9.0293 15.1746 11.5248 15.1746 16.9143V18.999H11.9068V23.8379H15.1746V34.367H15.1755C15.1755 34.367 15.1755 34.367 15.1755 34.367L15.1755 34.3674C8.27828 32.6565 3.16675 26.4252 3.16675 18.9993C3.16675 10.255 10.2557 3.16602 19.0001 3.16602C27.7445 3.16602 34.8334 10.255 34.8334 18.9993Z" fill="#0866FF"/>
</svg>
