<svg width="38" height="38" viewBox="0 0 38 38" fill="none" xmlns="http://www.w3.org/2000/svg">
<path d="M38 0V38H0V0H38Z" fill="white" fill-opacity="0.01"/>
<rect x="3.16675" y="3.16602" width="31.6667" height="31.6667" rx="4.3" fill="url(#paint0_radial_1257_39297)"/>
<rect x="3.16675" y="3.16602" width="31.6667" height="31.6667" rx="4.3" fill="url(#paint1_radial_1257_39297)"/>
<path d="M26.9166 12.7787C26.9166 13.7157 26.1571 14.4752 25.2202 14.4752C24.2833 14.4752 23.5238 13.7157 23.5238 12.7787C23.5238 11.8418 24.2833 11.0823 25.2202 11.0823C26.1571 11.0823 26.9166 11.8418 26.9166 12.7787Z" fill="white"/>
<path fill-rule="evenodd" clip-rule="evenodd" d="M19 24.6537C22.123 24.6537 24.6547 22.122 24.6547 18.999C24.6547 15.8759 22.123 13.3442 19 13.3442C15.8769 13.3442 13.3452 15.8759 13.3452 18.999C13.3452 22.122 15.8769 24.6537 19 24.6537ZM19 22.3918C20.8738 22.3918 22.3928 20.8728 22.3928 18.999C22.3928 17.1252 20.8738 15.6061 19 15.6061C17.1261 15.6061 15.6071 17.1252 15.6071 18.999C15.6071 20.8728 17.1261 22.3918 19 22.3918Z" fill="white"/>
<path fill-rule="evenodd" clip-rule="evenodd" d="M7.69043 18.5466C7.69043 14.7462 7.69043 12.8461 8.43003 11.3945C9.0806 10.1177 10.1187 9.07962 11.3955 8.42905C12.847 7.68945 14.7472 7.68945 18.5476 7.68945H19.4523C23.2527 7.68945 25.1529 7.68945 26.6044 8.42905C27.8812 9.07962 28.9193 10.1177 29.5699 11.3945C30.3095 12.8461 30.3095 14.7462 30.3095 18.5466V19.4514C30.3095 23.2517 30.3095 25.1519 29.5699 26.6034C28.9193 27.8802 27.8812 28.9183 26.6044 29.5689C25.1529 30.3085 23.2527 30.3085 19.4523 30.3085H18.5476C14.7472 30.3085 12.847 30.3085 11.3955 29.5689C10.1187 28.9183 9.0806 27.8802 8.43003 26.6034C7.69043 25.1519 7.69043 23.2517 7.69043 19.4514V18.5466ZM18.5476 9.95136H19.4523C21.3898 9.95136 22.7069 9.95312 23.725 10.0363C24.7166 10.1173 25.2238 10.2642 25.5775 10.4444C26.4287 10.8781 27.1208 11.5702 27.5545 12.4214C27.7348 12.7752 27.8816 13.2823 27.9626 14.2739C28.0458 15.292 28.0476 16.6091 28.0476 18.5466V19.4514C28.0476 21.3889 28.0458 22.706 27.9626 23.724C27.8816 24.7157 27.7348 25.2228 27.5545 25.5766C27.1208 26.4278 26.4287 27.1198 25.5775 27.5535C25.2238 27.7338 24.7166 27.8806 23.725 27.9617C22.7069 28.0448 21.3898 28.0466 19.4523 28.0466H18.5476C16.6101 28.0466 15.293 28.0448 14.2749 27.9617C13.2833 27.8806 12.7761 27.7338 12.4224 27.5535C11.5712 27.1198 10.8791 26.4278 10.4454 25.5766C10.2651 25.2228 10.1183 24.7157 10.0373 23.724C9.95409 22.706 9.95233 21.3889 9.95233 19.4514V18.5466C9.95233 16.6091 9.95409 15.292 10.0373 14.2739C10.1183 13.2823 10.2651 12.7752 10.4454 12.4214C10.8791 11.5702 11.5712 10.8781 12.4224 10.4444C12.7761 10.2642 13.2833 10.1173 14.2749 10.0363C15.293 9.95312 16.6101 9.95136 18.5476 9.95136Z" fill="white"/>
<defs>
<radialGradient id="paint0_radial_1257_39297" cx="0" cy="0" r="1" gradientUnits="userSpaceOnUse" gradientTransform="translate(11.5782 37.2717) rotate(-90) scale(31.384 29.1896)">
<stop stop-color="#FFDD55"/>
<stop offset="0.1" stop-color="#FFDD55"/>
<stop offset="0.5" stop-color="#FF543E"/>
<stop offset="1" stop-color="#C837AB"/>
</radialGradient>
<radialGradient id="paint1_radial_1257_39297" cx="0" cy="0" r="1" gradientUnits="userSpaceOnUse" gradientTransform="translate(-2.13759 5.44723) rotate(78.6806) scale(14.0288 57.8272)">
<stop stop-color="#3771C8"/>
<stop offset="0.128" stop-color="#3771C8"/>
<stop offset="1" stop-color="#6600FF" stop-opacity="0"/>
</radialGradient>
</defs>
</svg>
