<svg width="38" height="38" viewBox="0 0 38 38" fill="none" xmlns="http://www.w3.org/2000/svg">
<path d="M38 0V38H0V0H38Z" fill="white" fill-opacity="0.01"/>
<path d="M29.0329 29.0337H24.8101V22.4205C24.8101 20.8436 24.7819 18.8135 22.6138 18.8135C20.4144 18.8135 20.0778 20.5317 20.0778 22.3057V29.0333H15.8552V15.4339H19.909V17.2924H19.9657C20.3714 16.5987 20.9577 16.0281 21.662 15.6412C22.3664 15.2543 23.1625 15.0658 23.9655 15.0956C28.2455 15.0956 29.0346 17.9108 29.0346 21.5733L29.0329 29.0337ZM11.0903 13.5751C9.7369 13.5753 8.63954 12.4782 8.63932 11.1248C8.63909 9.77141 9.73601 8.67405 11.0894 8.67383C12.4428 8.6735 13.5402 9.77052 13.5404 11.1239C13.5405 11.7739 13.2825 12.3972 12.823 12.8569C12.3635 13.3166 11.7403 13.5749 11.0903 13.5751ZM13.2018 29.0339H8.97453V15.4339H13.2017V29.0337L13.2018 29.0339ZM31.1381 4.75207H6.85261C5.70482 4.73916 4.76354 5.65862 4.74951 6.80641V31.1932C4.76309 32.3415 5.70426 33.2619 6.8525 33.2498H31.1381C32.2888 33.2641 33.2336 32.3438 33.2495 31.1932V6.80452C33.2331 5.6545 32.2882 4.73515 31.1381 4.75018" fill="#0A66C2"/>
</svg>
