<svg width="632" height="600" viewBox="0 0 632 600" fill="none" xmlns="http://www.w3.org/2000/svg">
<circle cx="317" cy="300" r="300" fill="#3434A7"/>
<circle cx="317" cy="300" r="250" fill="#3A3AAA"/>
<rect x="307" y="300" width="325" height="155" fill="#EBEBFF"/>
<path d="M0 85H290V165.627V227H0V85Z" fill="#EBEBFF"/>
<path d="M34.7285 119.76H34.8574L35.459 120.361V120.662C34.929 120.662 34.4277 123.473 33.9551 129.095L34.417 129.245C36.7946 129.066 37.9834 128.869 37.9834 128.654C38.2054 123.326 38.5062 120.662 38.8857 120.662L39.3262 120.49C39.8275 120.619 40.0781 120.773 40.0781 120.952C39.4909 121.976 39.0863 125.134 38.8643 130.427C38.7354 135.869 38.3916 138.591 37.833 138.591H37.6719L37.2314 138.15L37.6719 133.843H37.5215L37.6719 133.714V132.21L37.833 129.997L37.6719 129.836C35.0078 130.029 33.6758 130.427 33.6758 131.028L33.0742 137.71V138.591L32.4834 139.053C32.1898 139.053 32.043 138.856 32.043 138.462H31.8926L32.7734 130.588L32.4834 129.686C32.9561 129.686 33.307 127.369 33.5361 122.735C33.9801 120.752 34.3776 119.76 34.7285 119.76ZM44.7832 126.291H45.2451L45.6855 126.603L45.5244 128.805C45.8037 134.068 46.2513 136.7 46.8672 136.7H47.1572V136.829C47.1572 137.373 46.9603 137.728 46.5664 137.893H45.9648C45.571 137.893 45.2272 136.8 44.9336 134.616H44.7832C44.2103 137.989 43.3223 139.676 42.1191 139.676C41.4316 139.676 41.0879 138.627 41.0879 136.528V134.917C41.0879 130.355 41.9222 127.781 43.5908 127.193C43.8701 127.193 44.2676 126.893 44.7832 126.291ZM42.1191 134.455V136.528C42.1191 137.624 42.266 138.172 42.5596 138.172C43.2041 138.172 43.8486 135.601 44.4932 130.459V130.298C44.4215 128.909 44.2747 128.214 44.0527 128.214H43.5908C42.6097 128.214 42.1191 130.294 42.1191 134.455ZM50.9385 128.01C51.9626 128.01 52.5999 129.156 52.8506 131.447C52.8506 133.03 51.7656 135.053 49.5957 137.517V137.688C49.5957 139.937 49.7497 142.512 50.0576 145.412L49.5957 145.702H49.4668C48.8652 145.702 48.5645 145.151 48.5645 144.048L48.4033 142.727L48.5645 142.576V142.447L48.1025 137.688L48.2744 136.786V133.671L48.4033 131.888H48.2744C48.79 129.302 49.6781 128.01 50.9385 128.01ZM49.4668 133.359V136.045H49.5957C51.0924 134.62 51.8408 132.933 51.8408 130.985C51.4469 129.797 51.096 129.202 50.7881 129.202H50.6484C49.8607 129.847 49.4668 131.232 49.4668 133.359ZM57.1045 128.01C58.1286 128.01 58.766 129.156 59.0166 131.447C59.0166 133.03 57.9316 135.053 55.7617 137.517V137.688C55.7617 139.937 55.9157 142.512 56.2236 145.412L55.7617 145.702H55.6328C55.0312 145.702 54.7305 145.151 54.7305 144.048L54.5693 142.727L54.7305 142.576V142.447L54.2686 137.688L54.4404 136.786V133.671L54.5693 131.888H54.4404C54.9561 129.302 55.8441 128.01 57.1045 128.01ZM55.6328 133.359V136.045H55.7617C57.2585 134.62 58.0068 132.933 58.0068 130.985C57.613 129.797 57.262 129.202 56.9541 129.202H56.8145C56.0267 129.847 55.6328 131.232 55.6328 133.359ZM65.752 127.021H66.2139L66.8154 127.612C66.6221 128.013 66.5254 128.558 66.5254 129.245V130.298L66.3535 134.154L66.5254 134.305V134.455L66.3535 135.927C66.3535 143.16 66.0133 146.776 65.333 146.776H64.7422L64.1514 146.035C64.7386 145.577 65.0322 144.635 65.0322 143.21C65.3258 140.496 65.4727 136.682 65.4727 131.77H65.333C65.1898 131.82 64.4951 133.456 63.249 136.679C62.8193 137.073 62.3717 137.323 61.9062 137.431C61.0254 137.431 60.585 135.941 60.585 132.962C60.585 130.599 61.0254 129.163 61.9062 128.654L62.3682 128.805V129.396C61.8525 130.011 61.5947 130.95 61.5947 132.21V133.112C61.5947 134.888 61.7952 135.776 62.1963 135.776H62.3682C64.2301 132.611 65.1611 129.993 65.1611 127.924L65.752 127.021ZM80.5762 120.286L80.9092 120.265L80.9736 121.328V121.479C80.9736 123.749 81.1204 124.884 81.4141 124.884L82.8643 124.4C82.9645 124.608 83.0612 124.823 83.1543 125.045C82.9753 125.202 82.9359 125.303 83.0361 125.346L81.2529 126.227L81.5645 133.95V134.541C81.5358 135.995 81.432 137.162 81.2529 138.043L80.5547 138L80.5117 135.69V132.017V130.384C80.5117 127.82 80.3649 126.538 80.0713 126.538L78.707 126.646L78.2236 126.452L78.2666 126.098L78.5244 126.033H78.8145C79.7526 125.897 80.2217 125.568 80.2217 125.045L79.9102 120.598L80.0713 120.469L80.5762 120.286ZM86.6348 126.409C87.5586 126.409 88.2031 127.734 88.5684 130.384L88.418 130.566V131.447C88.1673 136.009 87.376 138.29 86.0439 138.29L85.8828 138.419H85.7324C84.25 138.082 83.5088 136.199 83.5088 132.769C83.5088 128.529 84.5508 126.409 86.6348 126.409ZM84.4111 132.038C84.6331 135.497 85.0736 137.227 85.7324 137.227H85.8828C86.7207 137.227 87.265 135.447 87.5156 131.888V129.793C87.5156 128.461 87.0752 127.727 86.1943 127.591C85.0055 127.942 84.4111 129.424 84.4111 132.038ZM104.155 125.045L104.596 125.195V125.485C102.612 126.817 101.62 128.651 101.62 130.985L101.491 132.328V134.24C101.491 135.766 102.225 136.754 103.693 137.205C104.875 137.205 105.62 136.715 105.928 135.733H106.368L106.529 136.174C106.529 137.248 105.738 137.946 104.155 138.269C102.551 138.269 101.463 137.474 100.89 135.884C100.582 135.082 100.428 134.333 100.428 133.639V132.607C100.428 129.721 101.176 127.448 102.673 125.786L104.155 125.045ZM111.986 126.227H112.427L113.028 126.828V127.129L112.717 127.419L111.986 127.269C110.404 129.36 109.612 131.34 109.612 133.209V135.583L109.752 137.227C109.752 137.628 109.508 137.828 109.021 137.828V137.957C108.628 137.807 108.431 137.66 108.431 137.517V135.884C108.058 131.136 107.757 128.762 107.528 128.762C107.729 128.16 107.926 127.859 108.119 127.859H108.27C108.671 128.017 108.871 128.368 108.871 128.912V130.545H109.021C110.003 128.404 110.991 126.964 111.986 126.227ZM116.885 125.593C118.467 126.058 119.259 126.85 119.259 127.967V128.407C119.259 130.62 118.267 132.153 116.283 133.005H115.273V133.316C115.273 135.092 115.714 136.331 116.595 137.033H117.057C117.615 137.033 118.407 136.242 119.431 134.659L119.56 134.788H119.721C119.012 137.073 118.02 138.215 116.745 138.215C115.585 138.215 114.64 136.185 113.909 132.124C113.752 132.124 113.655 131.877 113.619 131.383C114.02 131.075 114.375 129.789 114.683 127.526C115.442 126.237 116.176 125.593 116.885 125.593ZM115.102 131.093C115.188 131.58 115.341 131.823 115.563 131.823H116.466C117.655 131.265 118.249 130.126 118.249 128.407V128.257C118.099 127.276 117.644 126.785 116.885 126.785C115.696 126.785 115.102 128.221 115.102 131.093ZM124.898 126.291H125.36L125.801 126.603L125.64 128.805C125.919 134.068 126.367 136.7 126.982 136.7H127.272V136.829C127.272 137.373 127.076 137.728 126.682 137.893H126.08C125.686 137.893 125.342 136.8 125.049 134.616H124.898C124.326 137.989 123.438 139.676 122.234 139.676C121.547 139.676 121.203 138.627 121.203 136.528V134.917C121.203 130.355 122.037 127.781 123.706 127.193C123.985 127.193 124.383 126.893 124.898 126.291ZM122.234 134.455V136.528C122.234 137.624 122.381 138.172 122.675 138.172C123.319 138.172 123.964 135.601 124.608 130.459V130.298C124.537 128.909 124.39 128.214 124.168 128.214H123.706C122.725 128.214 122.234 130.294 122.234 134.455ZM129.711 120.286L130.044 120.265L130.108 121.328V121.479C130.108 123.749 130.255 124.884 130.549 124.884L131.999 124.4C132.099 124.608 132.196 124.823 132.289 125.045C132.11 125.202 132.071 125.303 132.171 125.346L130.388 126.227L130.699 133.95V134.541C130.671 135.995 130.567 137.162 130.388 138.043L129.689 138L129.646 135.69V132.017V130.384C129.646 127.82 129.5 126.538 129.206 126.538L127.842 126.646L127.358 126.452L127.401 126.098L127.659 126.033H127.949C128.887 125.897 129.356 125.568 129.356 125.045L129.045 120.598L129.206 120.469L129.711 120.286ZM135.598 125.593C137.18 126.058 137.972 126.85 137.972 127.967V128.407C137.972 130.62 136.98 132.153 134.996 133.005H133.986V133.316C133.986 135.092 134.427 136.331 135.308 137.033H135.77C136.328 137.033 137.119 136.242 138.144 134.659L138.272 134.788H138.434C137.725 137.073 136.733 138.215 135.458 138.215C134.298 138.215 133.353 136.185 132.622 132.124C132.465 132.124 132.368 131.877 132.332 131.383C132.733 131.075 133.088 129.789 133.396 127.526C134.155 126.237 134.889 125.593 135.598 125.593ZM133.814 131.093C133.9 131.58 134.054 131.823 134.276 131.823H135.179C136.368 131.265 136.962 130.126 136.962 128.407V128.257C136.812 127.276 136.357 126.785 135.598 126.785C134.409 126.785 133.814 128.221 133.814 131.093ZM154.891 126.291H155.353L155.793 126.603L155.632 128.805C155.911 134.068 156.359 136.7 156.975 136.7H157.265V136.829C157.265 137.373 157.068 137.728 156.674 137.893H156.072C155.678 137.893 155.335 136.8 155.041 134.616H154.891C154.318 137.989 153.43 139.676 152.227 139.676C151.539 139.676 151.195 138.627 151.195 136.528V134.917C151.195 130.355 152.03 127.781 153.698 127.193C153.978 127.193 154.375 126.893 154.891 126.291ZM152.227 134.455V136.528C152.227 137.624 152.373 138.172 152.667 138.172C153.312 138.172 153.956 135.601 154.601 130.459V130.298C154.529 128.909 154.382 128.214 154.16 128.214H153.698C152.717 128.214 152.227 130.294 152.227 134.455ZM161.862 124.959H161.991C163.166 124.959 163.86 127.179 164.075 131.619V134.305L164.236 135.927L164.075 136.528L164.236 137.871L163.774 138.15C163.287 138.021 163.044 137.678 163.044 137.119V132.21C163.044 128.751 162.693 126.875 161.991 126.581H161.862C160.802 127.125 160.154 129.302 159.918 133.112V137.27L160.079 137.871C159.871 138.458 159.671 138.752 159.478 138.752C158.983 138.752 158.683 138.551 158.575 138.15L158.736 134.154L158.296 127.462V126.581L158.887 125.99C159.281 126.133 159.478 126.28 159.478 126.431L159.327 128.654L159.478 128.805H159.768C159.768 127.351 160.466 126.069 161.862 124.959ZM170.273 121.607C170.832 121.607 171.176 121.851 171.305 122.338L171.004 123.391C171.247 133.438 171.473 138.344 171.681 138.107L171.197 138.462C170.789 138.283 170.571 138.193 170.542 138.193L170.402 131.995L170.273 131.845H170.123C169.521 136.006 168.626 138.086 167.438 138.086H167.147C165.959 138.086 165.364 136.897 165.364 134.52C165.364 132.794 166.209 131.107 167.899 129.46C169.289 129.138 169.983 128.597 169.983 127.838V125.765L169.683 122.338C169.869 121.894 170.066 121.65 170.273 121.607ZM166.557 133.929V135.4C166.557 136.167 166.807 136.668 167.309 136.904H167.438C168.025 136.904 168.719 134.724 169.521 130.362L169.393 130.212H168.802C167.305 131.121 166.557 132.36 166.557 133.929ZM35.9209 163.045L36.3613 163.195V163.485C34.3776 164.817 33.3857 166.651 33.3857 168.985L33.2568 170.328V172.24C33.2568 173.766 33.9909 174.754 35.459 175.205C36.6406 175.205 37.3854 174.715 37.6934 173.733H38.1338L38.2949 174.174C38.2949 175.248 37.5036 175.946 35.9209 176.269C34.3167 176.269 33.2282 175.474 32.6553 173.884C32.3473 173.082 32.1934 172.333 32.1934 171.639V170.607C32.1934 167.721 32.9417 165.448 34.4385 163.786L35.9209 163.045ZM42.5918 164.409C43.5156 164.409 44.1602 165.734 44.5254 168.384L44.375 168.566V169.447C44.1243 174.009 43.333 176.29 42.001 176.29L41.8398 176.419H41.6895C40.207 176.082 39.4658 174.199 39.4658 170.769C39.4658 166.529 40.5078 164.409 42.5918 164.409ZM40.3682 170.038C40.5902 173.497 41.0306 175.227 41.6895 175.227H41.8398C42.6777 175.227 43.222 173.447 43.4727 169.888V167.793C43.4727 166.461 43.0322 165.727 42.1514 165.591C40.9626 165.942 40.3682 167.424 40.3682 170.038ZM48.876 162.959H49.0049C50.1794 162.959 50.874 165.179 51.0889 169.619V172.305L51.25 173.927L51.0889 174.528L51.25 175.871L50.7881 176.15C50.3011 176.021 50.0576 175.678 50.0576 175.119V170.21C50.0576 166.751 49.7067 164.875 49.0049 164.581H48.876C47.8161 165.125 47.168 167.302 46.9316 171.112V175.27L47.0928 175.871C46.8851 176.458 46.6846 176.752 46.4912 176.752C45.9971 176.752 45.6963 176.551 45.5889 176.15L45.75 172.154L45.3096 165.462V164.581L45.9004 163.99C46.2943 164.133 46.4912 164.28 46.4912 164.431L46.3408 166.654L46.4912 166.805H46.7812C46.7812 165.351 47.4795 164.069 48.876 162.959ZM55.7295 162.959H55.8584C57.0329 162.959 57.7275 165.179 57.9424 169.619V172.305L58.1035 173.927L57.9424 174.528L58.1035 175.871L57.6416 176.15C57.1546 176.021 56.9111 175.678 56.9111 175.119V170.21C56.9111 166.751 56.5602 164.875 55.8584 164.581H55.7295C54.6696 165.125 54.0215 167.302 53.7852 171.112V175.27L53.9463 175.871C53.7386 176.458 53.5381 176.752 53.3447 176.752C52.8506 176.752 52.5498 176.551 52.4424 176.15L52.6035 172.154L52.1631 165.462V164.581L52.7539 163.99C53.1478 164.133 53.3447 164.28 53.3447 164.431L53.1943 166.654L53.3447 166.805H53.6348C53.6348 165.351 54.333 164.069 55.7295 162.959ZM62.0781 163.593C63.6608 164.058 64.4521 164.85 64.4521 165.967V166.407C64.4521 168.62 63.4603 170.153 61.4766 171.005H60.4668V171.316C60.4668 173.092 60.9072 174.331 61.7881 175.033H62.25C62.8086 175.033 63.5999 174.242 64.624 172.659L64.7529 172.788H64.9141C64.2051 175.073 63.2132 176.215 61.9385 176.215C60.7783 176.215 59.833 174.185 59.1025 170.124C58.945 170.124 58.8483 169.877 58.8125 169.383C59.2135 169.075 59.568 167.789 59.876 165.526C60.6351 164.237 61.3691 163.593 62.0781 163.593ZM60.2949 169.093C60.3809 169.58 60.5348 169.823 60.7568 169.823H61.6592C62.848 169.265 63.4424 168.126 63.4424 166.407V166.257C63.292 165.276 62.8372 164.785 62.0781 164.785C60.8893 164.785 60.2949 166.221 60.2949 169.093ZM69.501 163.045L69.9414 163.195V163.485C67.9577 164.817 66.9658 166.651 66.9658 168.985L66.8369 170.328V172.24C66.8369 173.766 67.571 174.754 69.0391 175.205C70.2207 175.205 70.9655 174.715 71.2734 173.733H71.7139L71.875 174.174C71.875 175.248 71.0837 175.946 69.501 176.269C67.8968 176.269 66.8083 175.474 66.2354 173.884C65.9274 173.082 65.7734 172.333 65.7734 171.639V170.607C65.7734 167.721 66.5218 165.448 68.0186 163.786L69.501 163.045ZM74.3457 158.286L74.6787 158.265L74.7432 159.328V159.479C74.7432 161.749 74.89 162.884 75.1836 162.884L76.6338 162.4C76.734 162.608 76.8307 162.823 76.9238 163.045C76.7448 163.202 76.7054 163.303 76.8057 163.346L75.0225 164.227L75.334 171.95V172.541C75.3053 173.995 75.2015 175.162 75.0225 176.043L74.3242 176L74.2812 173.69V170.017V168.384C74.2812 165.82 74.1344 164.538 73.8408 164.538L72.4766 164.646L71.9932 164.452L72.0361 164.098L72.2939 164.033H72.584C73.5221 163.897 73.9912 163.568 73.9912 163.045L73.6797 158.598L73.8408 158.469L74.3457 158.286ZM89.8574 158.286L90.1904 158.265L90.2549 159.328V159.479C90.2549 161.749 90.4017 162.884 90.6953 162.884L92.1455 162.4C92.2458 162.608 92.3424 162.823 92.4355 163.045C92.2565 163.202 92.2171 163.303 92.3174 163.346L90.5342 164.227L90.8457 171.95V172.541C90.8171 173.995 90.7132 175.162 90.5342 176.043L89.8359 176L89.793 173.69V170.017V168.384C89.793 165.82 89.6462 164.538 89.3525 164.538L87.9883 164.646L87.5049 164.452L87.5479 164.098L87.8057 164.033H88.0957C89.0339 163.897 89.5029 163.568 89.5029 163.045L89.1914 158.598L89.3525 158.469L89.8574 158.286ZM93.2734 158.308H93.7139L94.1543 158.748V158.909L93.8643 160.091V161.133L94.1543 168.566L94.3047 169.007H94.5947C95.2536 166.529 96.2454 165.29 97.5703 165.29C98.5228 165.29 99.0706 168.015 99.2139 173.465L99.5039 175.098L99.0635 175.85C98.5479 175.85 98.2471 175.348 98.1611 174.346V173.314C98.1611 168.86 97.7637 166.633 96.9688 166.633C95.7513 167.098 95.0101 169.472 94.7451 173.755C94.8096 175.151 94.9134 175.85 95.0566 175.85C94.849 176.286 94.652 176.526 94.4658 176.569H94.0039C93.5169 176.29 93.2734 175.896 93.2734 175.388L93.5635 174.657C93.1481 164.452 92.7507 159.35 92.3711 159.35C92.5358 158.906 92.8366 158.558 93.2734 158.308ZM104.811 164.227H105.251L105.853 164.828V165.129L105.541 165.419L104.811 165.269C103.228 167.36 102.437 169.34 102.437 171.209V173.583L102.576 175.227C102.576 175.628 102.333 175.828 101.846 175.828V175.957C101.452 175.807 101.255 175.66 101.255 175.517V173.884C100.882 169.136 100.582 166.762 100.353 166.762C100.553 166.16 100.75 165.859 100.943 165.859H101.094C101.495 166.017 101.695 166.368 101.695 166.912V168.545H101.846C102.827 166.404 103.815 164.964 104.811 164.227ZM109.881 164.409C110.805 164.409 111.449 165.734 111.814 168.384L111.664 168.566V169.447C111.413 174.009 110.622 176.29 109.29 176.29L109.129 176.419H108.979C107.496 176.082 106.755 174.199 106.755 170.769C106.755 166.529 107.797 164.409 109.881 164.409ZM107.657 170.038C107.879 173.497 108.32 175.227 108.979 175.227H109.129C109.967 175.227 110.511 173.447 110.762 169.888V167.793C110.762 166.461 110.321 165.727 109.44 165.591C108.252 165.942 107.657 167.424 107.657 170.038ZM117.787 165.021L118.077 165.333L117.787 166.515V166.977L117.916 168.169C117.522 173.504 116.688 176.172 115.413 176.172C114.11 176.172 113.164 173.644 112.577 168.588V167.707C112.577 166.955 112.774 166.515 113.168 166.386H113.479L113.92 166.676L113.759 167.707V169.179C113.759 171.148 114.206 173.085 115.102 174.99H115.413C116.101 174.711 116.541 172.835 116.734 169.361V167.857C116.734 167.156 116.638 166.608 116.444 166.214C116.444 165.584 116.892 165.186 117.787 165.021ZM124.77 164.033H125.049L125.511 164.474V165.215C124.809 166.54 124.458 168.176 124.458 170.124L124.641 178.879C124.641 183.34 123.942 185.571 122.546 185.571C122.546 185.765 122.295 185.861 121.794 185.861C120.605 185.611 120.011 185.066 120.011 184.229V184.078H120.301C120.96 184.572 121.511 184.819 121.955 184.819C123.036 184.819 123.577 183.187 123.577 179.921V172.659L123.448 171.596H123.137C122.392 174.367 121.307 175.753 119.882 175.753H119.71C119.373 175.71 119.037 174.972 118.7 173.54C118.7 170.561 119.631 167.933 121.493 165.655L123.738 164.785C123.738 164.284 124.082 164.033 124.77 164.033ZM119.882 171.757V174.131C119.882 174.424 120.079 174.571 120.473 174.571C121.282 174.571 122.274 172.194 123.448 167.438V166.117C121.758 166.117 120.612 167.6 120.011 170.564L119.882 171.757ZM126.896 158.308H127.337L127.777 158.748V158.909L127.487 160.091V161.133L127.777 168.566L127.928 169.007H128.218C128.877 166.529 129.868 165.29 131.193 165.29C132.146 165.29 132.694 168.015 132.837 173.465L133.127 175.098L132.687 175.85C132.171 175.85 131.87 175.348 131.784 174.346V173.314C131.784 168.86 131.387 166.633 130.592 166.633C129.374 167.098 128.633 169.472 128.368 173.755C128.433 175.151 128.536 175.85 128.68 175.85C128.472 176.286 128.275 176.526 128.089 176.569H127.627C127.14 176.29 126.896 175.896 126.896 175.388L127.187 174.657C126.771 164.452 126.374 159.35 125.994 159.35C126.159 158.906 126.46 158.558 126.896 158.308ZM148.553 164.409C149.477 164.409 150.121 165.734 150.486 168.384L150.336 168.566V169.447C150.085 174.009 149.294 176.29 147.962 176.29L147.801 176.419H147.65C146.168 176.082 145.427 174.199 145.427 170.769C145.427 166.529 146.469 164.409 148.553 164.409ZM146.329 170.038C146.551 173.497 146.992 175.227 147.65 175.227H147.801C148.639 175.227 149.183 173.447 149.434 169.888V167.793C149.434 166.461 148.993 165.727 148.112 165.591C146.924 165.942 146.329 167.424 146.329 170.038ZM156.459 165.021L156.749 165.333L156.459 166.515V166.977L156.588 168.169C156.194 173.504 155.36 176.172 154.085 176.172C152.782 176.172 151.836 173.644 151.249 168.588V167.707C151.249 166.955 151.446 166.515 151.84 166.386H152.151L152.592 166.676L152.431 167.707V169.179C152.431 171.148 152.878 173.085 153.773 174.99H154.085C154.772 174.711 155.213 172.835 155.406 169.361V167.857C155.406 167.156 155.31 166.608 155.116 166.214C155.116 165.584 155.564 165.186 156.459 165.021ZM161.895 164.227H162.335L162.937 164.828V165.129L162.625 165.419L161.895 165.269C160.312 167.36 159.521 169.34 159.521 171.209V173.583L159.66 175.227C159.66 175.628 159.417 175.828 158.93 175.828V175.957C158.536 175.807 158.339 175.66 158.339 175.517V173.884C157.966 169.136 157.666 166.762 157.437 166.762C157.637 166.16 157.834 165.859 158.027 165.859H158.178C158.579 166.017 158.779 166.368 158.779 166.912V168.545H158.93C159.911 166.404 160.899 164.964 161.895 164.227ZM175.827 158.222L176.568 158.684L176.418 160.005L177.009 167.417H177.17C178.029 166.228 178.767 165.634 179.383 165.634H179.845C181.034 166.651 181.628 167.7 181.628 168.781C180.955 172.068 179.77 174.539 178.072 176.193L177.89 176.333C177.496 176.24 177.299 175.996 177.299 175.603H177.009C176.278 175.603 175.884 175.449 175.827 175.141V175.012L176.106 173.819C176.106 167.059 175.77 162.11 175.097 158.974C175.097 158.709 175.34 158.458 175.827 158.222ZM177.471 175.012L177.61 175.141C178.534 174.596 179.376 173.071 180.135 170.564L180.446 169.383C180.446 167.678 179.992 166.826 179.082 166.826C178.144 166.826 177.607 169.555 177.471 175.012ZM183.529 158.662L184.034 158.533L183.916 161.24L183.873 163.657L183.991 170.607L183.852 173.583L184.163 175.366C184.163 175.552 183.905 175.853 183.39 176.269L182.67 175.667C182.87 175.159 182.971 174.117 182.971 172.541V172.262L183.196 159.146C183.368 158.823 183.479 158.662 183.529 158.662ZM188.664 164.409C189.588 164.409 190.232 165.734 190.598 168.384L190.447 168.566V169.447C190.197 174.009 189.405 176.29 188.073 176.29L187.912 176.419H187.762C186.279 176.082 185.538 174.199 185.538 170.769C185.538 166.529 186.58 164.409 188.664 164.409ZM186.44 170.038C186.662 173.497 187.103 175.227 187.762 175.227H187.912C188.75 175.227 189.294 173.447 189.545 169.888V167.793C189.545 166.461 189.104 165.727 188.224 165.591C187.035 165.942 186.44 167.424 186.44 170.038ZM197.322 164.033H197.602L198.063 164.474V165.215C197.362 166.54 197.011 168.176 197.011 170.124L197.193 178.879C197.193 183.34 196.495 185.571 195.099 185.571C195.099 185.765 194.848 185.861 194.347 185.861C193.158 185.611 192.563 185.066 192.563 184.229V184.078H192.854C193.512 184.572 194.064 184.819 194.508 184.819C195.589 184.819 196.13 183.187 196.13 179.921V172.659L196.001 171.596H195.689C194.945 174.367 193.86 175.753 192.435 175.753H192.263C191.926 175.71 191.59 174.972 191.253 173.54C191.253 170.561 192.184 167.933 194.046 165.655L196.291 164.785C196.291 164.284 196.635 164.033 197.322 164.033ZM192.435 171.757V174.131C192.435 174.424 192.632 174.571 193.025 174.571C193.835 174.571 194.826 172.194 196.001 167.438V166.117C194.311 166.117 193.165 167.6 192.563 170.564L192.435 171.757Z" fill="black"/>
<ellipse cx="39" cy="202.5" rx="7" ry="7.5" fill="#D0EFB2"/>
<ellipse cx="67" cy="202.5" rx="7" ry="7.5" fill="#E29595"/>
<path d="M102 202.5C102 206.642 98.866 210 95 210C91.134 210 88 206.642 88 202.5C88 198.358 91.134 195 95 195C98.866 195 102 198.358 102 202.5Z" fill="#E0DBDB"/>
<rect x="352" y="315" width="234" height="21" fill="white"/>
<path d="M529.922 356.562C530.594 356.443 531.018 356.758 531.195 357.508C530.971 358.326 530.62 358.682 530.141 358.578C529.703 358.385 529.417 358 529.281 357.422C529.281 357.135 529.495 356.849 529.922 356.562ZM547.102 348.398C547.539 348.549 547.758 348.693 547.758 348.828V349.055C547.758 349.195 547.432 349.266 546.781 349.266C545.557 349.906 544.721 350.951 544.273 352.398C543.451 354.034 543.039 355.859 543.039 357.875V357.984C543.18 360.141 543.682 361.219 544.547 361.219L544.883 361.328H545.523C545.935 361.146 546.404 360.281 546.93 358.734H547.25V358.852C546.875 361.081 546.229 362.195 545.312 362.195C544.094 362.195 543.117 361.292 542.383 359.484L542.289 358.414C542.289 355.299 543.135 352.536 544.828 350.125C545.771 348.974 546.529 348.398 547.102 348.398ZM551.203 353.438H551.523L551.961 353.875V354.094L551.734 354.305L551.203 354.195C550.052 355.716 549.477 357.156 549.477 358.516V360.242L549.578 361.438C549.578 361.729 549.401 361.875 549.047 361.875V361.969C548.76 361.859 548.617 361.753 548.617 361.648V360.461C548.346 357.008 548.128 355.281 547.961 355.281C548.107 354.844 548.25 354.625 548.391 354.625H548.5C548.792 354.74 548.938 354.995 548.938 355.391V356.578H549.047C549.76 355.021 550.479 353.974 551.203 353.438ZM554.766 352.977C555.917 353.315 556.492 353.891 556.492 354.703V355.023C556.492 356.633 555.771 357.747 554.328 358.367H553.594V358.594C553.594 359.885 553.914 360.786 554.555 361.297H554.891C555.297 361.297 555.872 360.721 556.617 359.57L556.711 359.664H556.828C556.312 361.326 555.591 362.156 554.664 362.156C553.82 362.156 553.133 360.68 552.602 357.727C552.487 357.727 552.417 357.547 552.391 357.188C552.682 356.964 552.94 356.029 553.164 354.383C553.716 353.445 554.25 352.977 554.766 352.977ZM553.469 356.977C553.531 357.331 553.643 357.508 553.805 357.508H554.461C555.326 357.102 555.758 356.273 555.758 355.023V354.914C555.648 354.201 555.318 353.844 554.766 353.844C553.901 353.844 553.469 354.888 553.469 356.977ZM560.594 353.484H560.93L561.25 353.711L561.133 355.312C561.336 359.141 561.661 361.055 562.109 361.055H562.32V361.148C562.32 361.544 562.177 361.802 561.891 361.922H561.453C561.167 361.922 560.917 361.128 560.703 359.539H560.594C560.177 361.992 559.531 363.219 558.656 363.219C558.156 363.219 557.906 362.456 557.906 360.93V359.758C557.906 356.44 558.513 354.568 559.727 354.141C559.93 354.141 560.219 353.922 560.594 353.484ZM558.656 359.422V360.93C558.656 361.727 558.763 362.125 558.977 362.125C559.445 362.125 559.914 360.255 560.383 356.516V356.398C560.331 355.388 560.224 354.883 560.062 354.883H559.727C559.013 354.883 558.656 356.396 558.656 359.422ZM564.094 349.117L564.336 349.102L564.383 349.875V349.984C564.383 351.635 564.49 352.461 564.703 352.461L565.758 352.109C565.831 352.26 565.901 352.417 565.969 352.578C565.839 352.693 565.81 352.766 565.883 352.797L564.586 353.438L564.812 359.055V359.484C564.792 360.542 564.716 361.391 564.586 362.031L564.078 362L564.047 360.32V357.648V356.461C564.047 354.596 563.94 353.664 563.727 353.664L562.734 353.742L562.383 353.602L562.414 353.344L562.602 353.297H562.812C563.495 353.198 563.836 352.958 563.836 352.578L563.609 349.344L563.727 349.25L564.094 349.117ZM568.375 352.977C569.526 353.315 570.102 353.891 570.102 354.703V355.023C570.102 356.633 569.38 357.747 567.938 358.367H567.203V358.594C567.203 359.885 567.523 360.786 568.164 361.297H568.5C568.906 361.297 569.482 360.721 570.227 359.57L570.32 359.664H570.438C569.922 361.326 569.201 362.156 568.273 362.156C567.43 362.156 566.742 360.68 566.211 357.727C566.096 357.727 566.026 357.547 566 357.188C566.292 356.964 566.549 356.029 566.773 354.383C567.326 353.445 567.859 352.977 568.375 352.977ZM567.078 356.977C567.141 357.331 567.253 357.508 567.414 357.508H568.07C568.935 357.102 569.367 356.273 569.367 355.023V354.914C569.258 354.201 568.927 353.844 568.375 353.844C567.51 353.844 567.078 354.888 567.078 356.977ZM529.922 384.562C530.594 384.443 531.018 384.758 531.195 385.508C530.971 386.326 530.62 386.682 530.141 386.578C529.703 386.385 529.417 386 529.281 385.422C529.281 385.135 529.495 384.849 529.922 384.562ZM545.727 377.758H546.156C546.797 377.758 547.117 378.266 547.117 379.281C546.513 381.349 545.505 382.857 544.094 383.805V384.141C545.417 388.068 546.393 390.229 547.023 390.625L547.453 390.719V391.148L546.914 391.586C546.466 391.586 545.745 390.258 544.75 387.602L543.57 384.898H543.234V385.008L543.359 386.828C543.359 388.922 543.172 389.969 542.797 389.969H542.492C542.326 389.969 542.214 389.786 542.156 389.422L542.492 388.352L542.703 380.578C542.339 380.578 542.156 380.432 542.156 380.141C542.448 379.703 542.594 379.38 542.594 379.172V378.305L542.93 377.984H543.023L543.789 378.195L545.727 377.758ZM543.453 379.391L543.359 382.305V383.055L543.57 383.281H543.789C545.435 381.828 546.258 380.531 546.258 379.391V378.852L545.82 378.414H545.727C544.919 378.414 544.161 378.74 543.453 379.391ZM549.922 380.977C551.073 381.315 551.648 381.891 551.648 382.703V383.023C551.648 384.633 550.927 385.747 549.484 386.367H548.75V386.594C548.75 387.885 549.07 388.786 549.711 389.297H550.047C550.453 389.297 551.029 388.721 551.773 387.57L551.867 387.664H551.984C551.469 389.326 550.747 390.156 549.82 390.156C548.977 390.156 548.289 388.68 547.758 385.727C547.643 385.727 547.573 385.547 547.547 385.188C547.839 384.964 548.096 384.029 548.32 382.383C548.872 381.445 549.406 380.977 549.922 380.977ZM548.625 384.977C548.688 385.331 548.799 385.508 548.961 385.508H549.617C550.482 385.102 550.914 384.273 550.914 383.023V382.914C550.805 382.201 550.474 381.844 549.922 381.844C549.057 381.844 548.625 382.888 548.625 384.977ZM555.75 381.484H556.086L556.406 381.711L556.289 383.312C556.492 387.141 556.818 389.055 557.266 389.055H557.477V389.148C557.477 389.544 557.333 389.802 557.047 389.922H556.609C556.323 389.922 556.073 389.128 555.859 387.539H555.75C555.333 389.992 554.688 391.219 553.812 391.219C553.312 391.219 553.062 390.456 553.062 388.93V387.758C553.062 384.44 553.669 382.568 554.883 382.141C555.086 382.141 555.375 381.922 555.75 381.484ZM553.812 387.422V388.93C553.812 389.727 553.919 390.125 554.133 390.125C554.602 390.125 555.07 388.255 555.539 384.516V384.398C555.487 383.388 555.38 382.883 555.219 382.883H554.883C554.169 382.883 553.812 384.396 553.812 387.422ZM561.953 378.078C562.359 378.078 562.609 378.255 562.703 378.609L562.484 379.375C562.661 386.682 562.826 390.25 562.977 390.078L562.625 390.336C562.328 390.206 562.169 390.141 562.148 390.141L562.047 385.633L561.953 385.523H561.844C561.406 388.549 560.755 390.062 559.891 390.062H559.68C558.815 390.062 558.383 389.198 558.383 387.469C558.383 386.214 558.997 384.987 560.227 383.789C561.237 383.555 561.742 383.161 561.742 382.609V381.102L561.523 378.609C561.659 378.286 561.802 378.109 561.953 378.078ZM559.25 387.039V388.109C559.25 388.667 559.432 389.031 559.797 389.203H559.891C560.318 389.203 560.823 387.617 561.406 384.445L561.312 384.336H560.883C559.794 384.997 559.25 385.898 559.25 387.039ZM529.922 412.562C530.594 412.443 531.018 412.758 531.195 413.508C530.971 414.326 530.62 414.682 530.141 414.578C529.703 414.385 529.417 414 529.281 413.422C529.281 413.135 529.495 412.849 529.922 412.562ZM545.664 404.398C546.029 404.497 546.211 404.609 546.211 404.734V405.055C546.211 405.279 545.378 405.547 543.711 405.859L543.633 409.633V410.18C543.633 410.326 543.734 410.398 543.938 410.398L546 410.18L546.094 410.289V410.398C546.094 410.685 545.273 410.974 543.633 411.266L543.203 416.016V416.227C543.203 417.013 543.49 417.406 544.062 417.406L546.961 416.227L547.148 416.883C547.247 416.987 546.107 417.451 543.727 418.273C543.023 418.273 542.56 417.552 542.336 416.109L542.867 411.469L542.547 410.93C542.833 410.383 542.977 409.951 542.977 409.633L542.867 406.898C542.867 406.18 542.792 405.82 542.641 405.82C542.641 405.247 543.648 404.773 545.664 404.398ZM551.766 406.078C552.172 406.078 552.422 406.255 552.516 406.609L552.297 407.375C552.474 414.682 552.638 418.25 552.789 418.078L552.438 418.336C552.141 418.206 551.982 418.141 551.961 418.141L551.859 413.633L551.766 413.523H551.656C551.219 416.549 550.568 418.062 549.703 418.062H549.492C548.628 418.062 548.195 417.198 548.195 415.469C548.195 414.214 548.81 412.987 550.039 411.789C551.049 411.555 551.555 411.161 551.555 410.609V409.102L551.336 406.609C551.471 406.286 551.615 406.109 551.766 406.078ZM549.062 415.039V416.109C549.062 416.667 549.245 417.031 549.609 417.203H549.703C550.13 417.203 550.635 415.617 551.219 412.445L551.125 412.336H550.695C549.607 412.997 549.062 413.898 549.062 415.039ZM554.125 407.922C554.401 407.922 554.656 408.065 554.891 408.352C554.891 408.565 554.635 408.815 554.125 409.102C553.932 409.102 553.755 408.927 553.594 408.578C553.734 408.182 553.911 407.964 554.125 407.922ZM554.125 410.734L554.461 411.172C554.174 411.458 554.031 412.247 554.031 413.539C554.062 414.904 554.273 416.232 554.664 417.523V417.742L554.352 418.078H554.031C553.688 418.078 553.43 416.383 553.258 412.992C553.258 411.487 553.477 410.734 553.914 410.734H554.125ZM556.391 405.117L556.633 405.102L556.68 405.875V405.984C556.68 407.635 556.786 408.461 557 408.461L558.055 408.109C558.128 408.26 558.198 408.417 558.266 408.578C558.135 408.693 558.107 408.766 558.18 408.797L556.883 409.438L557.109 415.055V415.484C557.089 416.542 557.013 417.391 556.883 418.031L556.375 418L556.344 416.32V413.648V412.461C556.344 410.596 556.237 409.664 556.023 409.664L555.031 409.742L554.68 409.602L554.711 409.344L554.898 409.297H555.109C555.792 409.198 556.133 408.958 556.133 408.578L555.906 405.344L556.023 405.25L556.391 405.117ZM529.922 440.562C530.594 440.443 531.018 440.758 531.195 441.508C530.971 442.326 530.62 442.682 530.141 442.578C529.703 442.385 529.417 442 529.281 441.422C529.281 441.135 529.495 440.849 529.922 440.562ZM545.727 433.758H546.156C546.797 433.758 547.117 434.266 547.117 435.281C546.513 437.349 545.505 438.857 544.094 439.805V440.141C545.417 444.068 546.393 446.229 547.023 446.625L547.453 446.719V447.148L546.914 447.586C546.466 447.586 545.745 446.258 544.75 443.602L543.57 440.898H543.234V441.008L543.359 442.828C543.359 444.922 543.172 445.969 542.797 445.969H542.492C542.326 445.969 542.214 445.786 542.156 445.422L542.492 444.352L542.703 436.578C542.339 436.578 542.156 436.432 542.156 436.141C542.448 435.703 542.594 435.38 542.594 435.172V434.305L542.93 433.984H543.023L543.789 434.195L545.727 433.758ZM543.453 435.391L543.359 438.305V439.055L543.57 439.281H543.789C545.435 437.828 546.258 436.531 546.258 435.391V434.852L545.82 434.414H545.727C544.919 434.414 544.161 434.74 543.453 435.391ZM549.922 436.977C551.073 437.315 551.648 437.891 551.648 438.703V439.023C551.648 440.633 550.927 441.747 549.484 442.367H548.75V442.594C548.75 443.885 549.07 444.786 549.711 445.297H550.047C550.453 445.297 551.029 444.721 551.773 443.57L551.867 443.664H551.984C551.469 445.326 550.747 446.156 549.82 446.156C548.977 446.156 548.289 444.68 547.758 441.727C547.643 441.727 547.573 441.547 547.547 441.188C547.839 440.964 548.096 440.029 548.32 438.383C548.872 437.445 549.406 436.977 549.922 436.977ZM548.625 440.977C548.688 441.331 548.799 441.508 548.961 441.508H549.617C550.482 441.102 550.914 440.273 550.914 439.023V438.914C550.805 438.201 550.474 437.844 549.922 437.844C549.057 437.844 548.625 438.888 548.625 440.977ZM557.734 436.828C558.406 436.828 558.88 439.021 559.156 443.406V445.57L558.82 445.906C558.513 445.906 558.294 445.76 558.164 445.469L558.391 443.203C558.229 439.979 557.979 438.32 557.641 438.227H557.43C556.768 440.018 556.438 442.32 556.438 445.133L556.133 445.359H555.703C555.573 445.359 555.461 445.177 555.367 444.812C555.654 444.312 555.797 443.055 555.797 441.039C555.703 439.674 555.526 438.992 555.266 438.992H555.141C554.562 438.992 554.273 440.609 554.273 443.844V444.703L554.406 445.359C554.245 445.786 553.956 446 553.539 446L553.109 445.469L553.32 444.062V443.523L552.984 438.656C552.984 438.25 553.169 438 553.539 437.906C553.831 437.979 553.977 438.198 553.977 438.562L553.75 439.203V439.422H553.844C554.411 438.333 554.844 437.789 555.141 437.789C555.526 437.789 555.927 438.19 556.344 438.992C556.49 438.992 556.74 438.378 557.094 437.148L557.734 436.828ZM562.188 437.57C562.859 437.57 563.328 438.534 563.594 440.461L563.484 440.594V441.234C563.302 444.552 562.727 446.211 561.758 446.211L561.641 446.305H561.531C560.453 446.06 559.914 444.69 559.914 442.195C559.914 439.112 560.672 437.57 562.188 437.57ZM560.57 441.664C560.732 444.18 561.052 445.438 561.531 445.438H561.641C562.25 445.438 562.646 444.143 562.828 441.555V440.031C562.828 439.062 562.508 438.529 561.867 438.43C561.003 438.685 560.57 439.763 560.57 441.664ZM567.812 437.68C567.948 437.711 568.091 437.893 568.242 438.227C568.018 438.664 567.367 441 566.289 445.234C566.013 445.807 565.727 446.138 565.43 446.227C565.003 446.227 564.789 445.219 564.789 443.203L564.352 438.656C564.451 438.229 564.664 438.016 564.992 438.016L565.312 438.445L565.219 439.312C565.25 442.682 565.427 444.367 565.75 444.367C566.688 441.508 567.156 439.68 567.156 438.883L567.047 438.016C567.312 437.792 567.568 437.68 567.812 437.68ZM570.641 436.977C571.792 437.315 572.367 437.891 572.367 438.703V439.023C572.367 440.633 571.646 441.747 570.203 442.367H569.469V442.594C569.469 443.885 569.789 444.786 570.43 445.297H570.766C571.172 445.297 571.747 444.721 572.492 443.57L572.586 443.664H572.703C572.188 445.326 571.466 446.156 570.539 446.156C569.695 446.156 569.008 444.68 568.477 441.727C568.362 441.727 568.292 441.547 568.266 441.188C568.557 440.964 568.815 440.029 569.039 438.383C569.591 437.445 570.125 436.977 570.641 436.977ZM569.344 440.977C569.406 441.331 569.518 441.508 569.68 441.508H570.336C571.201 441.102 571.633 440.273 571.633 439.023V438.914C571.523 438.201 571.193 437.844 570.641 437.844C569.776 437.844 569.344 438.888 569.344 440.977Z" fill="black"/>
<path d="M344.16 356.46C344 356.433 343.853 356.333 343.72 356.16C343.587 355.987 343.52 355.827 343.52 355.68C343.52 355.56 343.573 355.473 343.68 355.42C343.947 355.313 344.347 355.213 344.88 355.12C345.427 355.027 346.02 354.953 346.66 354.9C347.3 354.847 347.88 354.82 348.4 354.82C349.453 354.82 350.3 354.96 350.94 355.24C351.593 355.507 352.067 355.867 352.36 356.32C352.667 356.773 352.82 357.287 352.82 357.86C352.82 358.433 352.68 358.94 352.4 359.38C352.12 359.807 351.773 360.16 351.36 360.44C350.96 360.72 350.567 360.927 350.18 361.06C350.847 361.1 351.46 361.28 352.02 361.6C352.593 361.92 353.053 362.347 353.4 362.88C353.76 363.413 353.94 364.02 353.94 364.7C353.94 365.567 353.753 366.28 353.38 366.84C353.02 367.4 352.54 367.84 351.94 368.16C351.34 368.467 350.687 368.693 349.98 368.84C349.273 368.987 348.567 369.073 347.86 369.1C347.153 369.14 346.52 369.16 345.96 369.16C345.667 369.16 345.267 369.14 344.76 369.1C344.253 369.073 343.82 369.033 343.46 368.98C343.22 368.94 343.1 368.833 343.1 368.66C343.1 368.567 343.133 368.487 343.2 368.42C343.28 368.353 343.38 368.32 343.5 368.32C343.607 368.32 343.74 368.313 343.9 368.3C344.073 368.287 344.16 368.28 344.16 368.28V356.46ZM345.58 360.94C345.86 360.94 346.167 360.933 346.5 360.92C346.847 360.907 347.18 360.887 347.5 360.86C347.82 360.82 348.08 360.787 348.28 360.76C348.773 360.667 349.28 360.5 349.8 360.26C350.32 360.02 350.76 359.707 351.12 359.32C351.48 358.933 351.66 358.487 351.66 357.98C351.66 357.233 351.36 356.693 350.76 356.36C350.173 356.013 349.307 355.84 348.16 355.84C347.707 355.84 347.22 355.873 346.7 355.94C346.193 355.993 345.733 356.073 345.32 356.18V360.94H345.58ZM348.52 361.74C348.053 361.74 347.513 361.753 346.9 361.78C346.287 361.807 345.76 361.84 345.32 361.88V368.34C345.787 368.34 346.333 368.327 346.96 368.3C347.6 368.26 348.253 368.187 348.92 368.08C349.6 367.96 350.233 367.773 350.82 367.52C351.407 367.253 351.88 366.9 352.24 366.46C352.6 366.02 352.78 365.453 352.78 364.76C352.78 364.213 352.653 363.753 352.4 363.38C352.16 362.993 351.84 362.687 351.44 362.46C351.053 362.22 350.633 362.047 350.18 361.94C349.74 361.82 349.32 361.753 348.92 361.74H348.52ZM357.088 357.2C357.088 357.067 357.081 356.86 357.068 356.58C357.054 356.3 357.041 356.013 357.028 355.72C357.028 355.427 357.028 355.207 357.028 355.06C357.028 354.94 357.134 354.88 357.348 354.88C357.521 354.88 357.708 354.933 357.908 355.04C358.121 355.133 358.228 355.26 358.228 355.42C358.228 355.527 358.221 355.693 358.208 355.92C358.208 356.133 358.201 356.36 358.188 356.6C358.188 356.84 358.188 357.04 358.188 357.2V366.9C358.188 366.98 358.194 367.16 358.208 367.44C358.221 367.72 358.228 368.013 358.228 368.32C358.241 368.627 358.248 368.86 358.248 369.02C358.248 369.14 358.141 369.2 357.928 369.2C357.754 369.2 357.561 369.147 357.348 369.04C357.148 368.947 357.048 368.82 357.048 368.66C357.048 368.553 357.048 368.38 357.048 368.14C357.061 367.887 357.068 367.64 357.068 367.4C357.081 367.16 357.088 366.993 357.088 366.9V357.2ZM364.122 360.16C364.388 359.96 364.708 359.773 365.082 359.6C365.468 359.413 365.942 359.32 366.502 359.32C367.635 359.32 368.555 359.74 369.262 360.58C369.982 361.42 370.342 362.593 370.342 364.1C370.342 364.74 370.235 365.367 370.022 365.98C369.822 366.593 369.522 367.153 369.122 367.66C368.722 368.167 368.228 368.573 367.642 368.88C367.055 369.173 366.375 369.32 365.602 369.32C364.268 369.32 363.235 368.92 362.502 368.12C361.782 367.32 361.422 366.233 361.422 364.86C361.422 364.26 361.515 363.673 361.702 363.1C361.902 362.513 362.135 361.987 362.402 361.52C362.682 361.04 362.948 360.66 363.202 360.38C363.468 360.1 363.668 359.96 363.802 359.96C363.948 359.96 364.055 360.027 364.122 360.16ZM365.602 368.3C366.255 368.3 366.855 368.113 367.402 367.74C367.962 367.353 368.408 366.847 368.742 366.22C369.075 365.58 369.242 364.873 369.242 364.1C369.242 362.98 368.995 362.073 368.502 361.38C368.008 360.673 367.302 360.32 366.382 360.32C365.822 360.32 365.302 360.453 364.822 360.72C364.355 360.987 363.948 361.347 363.602 361.8C363.268 362.24 363.002 362.727 362.802 363.26C362.615 363.793 362.522 364.32 362.522 364.84C362.522 365.947 362.795 366.8 363.342 367.4C363.888 368 364.642 368.3 365.602 368.3ZM380.132 366.32C379.599 367.253 378.966 367.907 378.232 368.28C377.512 368.64 376.792 368.82 376.072 368.82C375.032 368.82 374.199 368.48 373.572 367.8C372.959 367.107 372.652 366.1 372.652 364.78C372.652 364.1 372.779 363.44 373.032 362.8C373.286 362.147 373.632 361.56 374.072 361.04C374.512 360.52 375.019 360.107 375.592 359.8C376.179 359.48 376.792 359.32 377.432 359.32C378.006 359.32 378.532 359.44 379.012 359.68C379.506 359.92 379.879 360.313 380.132 360.86C380.132 360.553 380.126 360.287 380.112 360.06C380.112 359.833 380.112 359.647 380.112 359.5C380.112 359.38 380.219 359.32 380.432 359.32C380.606 359.32 380.792 359.373 380.992 359.48C381.192 359.573 381.292 359.693 381.292 359.84V359.86C381.279 360.113 381.259 360.42 381.232 360.78C381.219 361.14 381.212 361.493 381.212 361.84V368C381.212 368.96 380.986 369.773 380.532 370.44C380.092 371.107 379.499 371.607 378.752 371.94C378.019 372.287 377.212 372.46 376.332 372.46C375.599 372.46 374.999 372.36 374.532 372.16C374.066 371.973 373.699 371.753 373.432 371.5C373.179 371.247 372.999 371.013 372.892 370.8C372.786 370.6 372.732 370.493 372.732 370.48C372.732 370.307 372.812 370.133 372.972 369.96C373.132 369.787 373.286 369.7 373.432 369.7C373.552 369.7 373.639 369.767 373.692 369.9C373.946 370.46 374.272 370.853 374.672 371.08C375.086 371.32 375.639 371.44 376.332 371.44C377.026 371.44 377.659 371.313 378.232 371.06C378.806 370.807 379.266 370.42 379.612 369.9C379.959 369.393 380.132 368.753 380.132 367.98V366.32ZM380.132 361.2C380.092 361.267 380.032 361.333 379.952 361.4C379.872 361.467 379.792 361.5 379.712 361.5C379.646 361.5 379.586 361.467 379.532 361.4C379.239 361.013 378.912 360.733 378.552 360.56C378.192 360.387 377.826 360.3 377.452 360.3C376.959 360.3 376.486 360.433 376.032 360.7C375.592 360.953 375.199 361.3 374.852 361.74C374.519 362.18 374.252 362.667 374.052 363.2C373.866 363.72 373.772 364.24 373.772 364.76C373.772 365.84 373.979 366.62 374.392 367.1C374.819 367.58 375.379 367.82 376.072 367.82C376.566 367.82 377.086 367.693 377.632 367.44C378.179 367.187 378.672 366.813 379.112 366.32C379.566 365.827 379.872 365.227 380.032 364.52C380.086 364.347 380.112 364.047 380.112 363.62C380.126 363.18 380.132 362.707 380.132 362.2V361.2ZM356.58 385.44C356.807 387.52 357 389.26 357.16 390.66C357.333 392.047 357.48 393.167 357.6 394.02C357.72 394.873 357.82 395.54 357.9 396.02C357.98 396.487 358.047 396.84 358.1 397.08C358.153 397.307 358.207 397.493 358.26 397.64C358.26 397.653 358.26 397.667 358.26 397.68C358.273 397.693 358.28 397.707 358.28 397.72C358.28 397.84 358.193 397.933 358.02 398C357.847 398.067 357.667 398.1 357.48 398.1C357.32 398.1 357.18 398.073 357.06 398.02C356.94 397.967 356.873 397.887 356.86 397.78C356.847 397.5 356.833 397.26 356.82 397.06C356.807 396.847 356.787 396.593 356.76 396.3C356.693 395.687 356.607 394.94 356.5 394.06C356.393 393.167 356.273 392.213 356.14 391.2C356.02 390.187 355.9 389.187 355.78 388.2C355.673 387.213 355.573 386.32 355.48 385.52C355.44 385.587 355.333 385.813 355.16 386.2C354.987 386.573 354.767 387.047 354.5 387.62C354.233 388.18 353.947 388.8 353.64 389.48C353.333 390.147 353.027 390.82 352.72 391.5C352.413 392.167 352.133 392.793 351.88 393.38C351.64 393.953 351.44 394.433 351.28 394.82C351.133 395.207 351.06 395.44 351.06 395.52C351.047 395.68 350.947 395.813 350.76 395.92C350.573 396.027 350.387 396.08 350.2 396.08C350.08 396.08 349.967 396.053 349.86 396C349.767 395.947 349.707 395.873 349.68 395.78C349.613 395.567 349.533 395.34 349.44 395.1C349.36 394.86 349.3 394.7 349.26 394.62C349.06 394.14 348.807 393.54 348.5 392.82C348.193 392.1 347.867 391.327 347.52 390.5C347.173 389.66 346.833 388.833 346.5 388.02C346.167 387.193 345.873 386.44 345.62 385.76C345.42 387.453 345.247 388.9 345.1 390.1C344.953 391.287 344.833 392.287 344.74 393.1C344.647 393.913 344.567 394.58 344.5 395.1C344.447 395.607 344.4 396.02 344.36 396.34C344.333 396.647 344.307 396.907 344.28 397.12C344.267 397.333 344.253 397.547 344.24 397.76C344.227 397.88 344.133 397.967 343.96 398.02C343.787 398.087 343.607 398.12 343.42 398.12C343.273 398.12 343.147 398.1 343.04 398.06C342.933 398.02 342.88 397.96 342.88 397.88V397.82C342.987 397.447 343.093 396.947 343.2 396.32C343.307 395.68 343.413 394.973 343.52 394.2C343.64 393.413 343.747 392.607 343.84 391.78C343.947 390.94 344.04 390.133 344.12 389.36C344.213 388.587 344.293 387.887 344.36 387.26C344.427 386.633 344.473 386.14 344.5 385.78C344.54 385.407 344.56 385.22 344.56 385.22C344.56 385.113 344.553 385.027 344.54 384.96C344.54 384.88 344.54 384.807 344.54 384.74C344.54 384.713 344.54 384.68 344.54 384.64C344.54 384.6 344.547 384.567 344.56 384.54C344.587 384.393 344.707 384.267 344.92 384.16C345.147 384.04 345.373 383.98 345.6 383.98C345.787 383.98 345.913 384.02 345.98 384.1C346.047 384.167 346.147 384.36 346.28 384.68C346.6 385.48 346.94 386.327 347.3 387.22C347.66 388.1 348.02 388.98 348.38 389.86C348.753 390.74 349.1 391.573 349.42 392.36C349.753 393.133 350.053 393.813 350.32 394.4C350.76 393.373 351.233 392.287 351.74 391.14C352.247 389.98 352.76 388.833 353.28 387.7C353.8 386.567 354.293 385.52 354.76 384.56C354.84 384.387 354.92 384.22 355 384.06C355.08 383.887 355.227 383.8 355.44 383.8C355.573 383.8 355.733 383.84 355.92 383.92C356.12 383.987 356.293 384.073 356.44 384.18C356.6 384.273 356.68 384.367 356.68 384.46C356.68 384.593 356.66 384.727 356.62 384.86C356.593 384.98 356.58 385.127 356.58 385.3V385.44ZM368.849 388.86C368.809 389.153 368.769 389.547 368.729 390.04C368.703 390.52 368.676 391.033 368.649 391.58C368.636 392.113 368.623 392.613 368.609 393.08C368.596 393.547 368.589 393.9 368.589 394.14C368.589 394.313 368.596 394.587 368.609 394.96C368.636 395.32 368.696 395.713 368.789 396.14C368.896 396.567 369.063 396.96 369.289 397.32C369.316 397.373 369.329 397.42 369.329 397.46C369.329 397.607 369.256 397.773 369.109 397.96C368.976 398.133 368.816 398.22 368.629 398.22C368.496 398.22 368.363 398.127 368.229 397.94C368.109 397.74 367.996 397.493 367.889 397.2C367.796 396.893 367.716 396.587 367.649 396.28C367.583 395.973 367.543 395.707 367.529 395.48C367.049 396.453 366.436 397.173 365.689 397.64C364.956 398.093 364.209 398.32 363.449 398.32C362.489 398.32 361.716 398 361.129 397.36C360.556 396.707 360.269 395.753 360.269 394.5C360.269 393.66 360.409 392.867 360.689 392.12C360.983 391.373 361.363 390.713 361.829 390.14C362.309 389.567 362.836 389.12 363.409 388.8C363.996 388.48 364.583 388.32 365.169 388.32C365.663 388.32 366.129 388.44 366.569 388.68C367.023 388.92 367.356 389.293 367.569 389.8C367.583 389.493 367.589 389.227 367.589 389C367.603 388.76 367.609 388.593 367.609 388.5C367.609 388.38 367.723 388.32 367.949 388.32C368.136 388.32 368.329 388.367 368.529 388.46C368.743 388.553 368.849 388.673 368.849 388.82V388.86ZM367.569 390.28C367.543 390.333 367.489 390.38 367.409 390.42C367.343 390.46 367.276 390.48 367.209 390.48C367.129 390.48 367.069 390.453 367.029 390.4C366.776 390.013 366.483 389.733 366.149 389.56C365.816 389.373 365.496 389.28 365.189 389.28C364.749 389.28 364.303 389.413 363.849 389.68C363.409 389.933 363.003 390.293 362.629 390.76C362.256 391.227 361.956 391.773 361.729 392.4C361.516 393.013 361.409 393.68 361.409 394.4C361.409 395.427 361.603 396.173 361.989 396.64C362.376 397.093 362.863 397.32 363.449 397.32C364.116 397.32 364.749 397.107 365.349 396.68C365.963 396.253 366.469 395.653 366.869 394.88C367.269 394.107 367.489 393.207 367.529 392.18C367.543 391.98 367.549 391.7 367.549 391.34C367.549 390.967 367.556 390.613 367.569 390.28ZM379.413 392.12C379.413 391.587 379.36 391.113 379.253 390.7C379.16 390.287 378.98 389.96 378.713 389.72C378.46 389.48 378.08 389.36 377.573 389.36C377.107 389.36 376.627 389.46 376.133 389.66C375.64 389.86 375.193 390.173 374.793 390.6C374.393 391.013 374.093 391.56 373.893 392.24C373.733 392.773 373.64 393.373 373.613 394.04C373.6 394.693 373.587 395.313 373.573 395.9V396.18C373.573 396.553 373.58 396.907 373.593 397.24C373.62 397.56 373.633 397.82 373.633 398.02C373.633 398.14 373.533 398.2 373.333 398.2C373.16 398.2 372.967 398.147 372.753 398.04C372.553 397.947 372.453 397.82 372.453 397.66C372.453 397.553 372.453 397.38 372.453 397.14C372.467 396.887 372.473 396.64 372.473 396.4C372.487 396.16 372.493 395.993 372.493 395.9V390.7C372.493 390.567 372.487 390.36 372.473 390.08C372.46 389.8 372.447 389.513 372.433 389.22C372.433 388.927 372.433 388.707 372.433 388.56C372.433 388.44 372.533 388.38 372.733 388.38C372.92 388.38 373.113 388.433 373.313 388.54C373.513 388.633 373.613 388.76 373.613 388.92C373.613 389.027 373.613 389.2 373.613 389.44C373.613 389.667 373.607 389.907 373.593 390.16C373.593 390.413 373.593 390.633 373.593 390.82C373.86 390.273 374.207 389.82 374.633 389.46C375.073 389.087 375.547 388.807 376.053 388.62C376.573 388.42 377.08 388.32 377.573 388.32C378.213 388.32 378.727 388.44 379.113 388.68C379.5 388.907 379.793 389.207 379.993 389.58C380.193 389.953 380.327 390.36 380.393 390.8C380.46 391.227 380.493 391.64 380.493 392.04V395.9C380.493 395.98 380.5 396.16 380.513 396.44C380.527 396.72 380.533 397.013 380.533 397.32C380.547 397.627 380.553 397.86 380.553 398.02C380.553 398.14 380.453 398.2 380.253 398.2C380.08 398.2 379.887 398.147 379.673 398.04C379.473 397.947 379.373 397.82 379.373 397.66C379.373 397.553 379.373 397.393 379.373 397.18C379.387 396.953 379.393 396.72 379.393 396.48C379.407 396.24 379.413 396.047 379.413 395.9V392.12ZM392.111 388.86C392.071 389.153 392.031 389.547 391.991 390.04C391.964 390.52 391.938 391.033 391.911 391.58C391.898 392.113 391.884 392.613 391.871 393.08C391.858 393.547 391.851 393.9 391.851 394.14C391.851 394.313 391.858 394.587 391.871 394.96C391.898 395.32 391.958 395.713 392.051 396.14C392.158 396.567 392.324 396.96 392.551 397.32C392.578 397.373 392.591 397.42 392.591 397.46C392.591 397.607 392.518 397.773 392.371 397.96C392.238 398.133 392.078 398.22 391.891 398.22C391.758 398.22 391.624 398.127 391.491 397.94C391.371 397.74 391.258 397.493 391.151 397.2C391.058 396.893 390.978 396.587 390.911 396.28C390.844 395.973 390.804 395.707 390.791 395.48C390.311 396.453 389.698 397.173 388.951 397.64C388.218 398.093 387.471 398.32 386.711 398.32C385.751 398.32 384.978 398 384.391 397.36C383.818 396.707 383.531 395.753 383.531 394.5C383.531 393.66 383.671 392.867 383.951 392.12C384.244 391.373 384.624 390.713 385.091 390.14C385.571 389.567 386.098 389.12 386.671 388.8C387.258 388.48 387.844 388.32 388.431 388.32C388.924 388.32 389.391 388.44 389.831 388.68C390.284 388.92 390.618 389.293 390.831 389.8C390.844 389.493 390.851 389.227 390.851 389C390.864 388.76 390.871 388.593 390.871 388.5C390.871 388.38 390.984 388.32 391.211 388.32C391.398 388.32 391.591 388.367 391.791 388.46C392.004 388.553 392.111 388.673 392.111 388.82V388.86ZM390.831 390.28C390.804 390.333 390.751 390.38 390.671 390.42C390.604 390.46 390.538 390.48 390.471 390.48C390.391 390.48 390.331 390.453 390.291 390.4C390.038 390.013 389.744 389.733 389.411 389.56C389.078 389.373 388.758 389.28 388.451 389.28C388.011 389.28 387.564 389.413 387.111 389.68C386.671 389.933 386.264 390.293 385.891 390.76C385.518 391.227 385.218 391.773 384.991 392.4C384.778 393.013 384.671 393.68 384.671 394.4C384.671 395.427 384.864 396.173 385.251 396.64C385.638 397.093 386.124 397.32 386.711 397.32C387.378 397.32 388.011 397.107 388.611 396.68C389.224 396.253 389.731 395.653 390.131 394.88C390.531 394.107 390.751 393.207 390.791 392.18C390.804 391.98 390.811 391.7 390.811 391.34C390.811 390.967 390.818 390.613 390.831 390.28ZM402.515 395.32C401.982 396.253 401.348 396.907 400.615 397.28C399.895 397.64 399.175 397.82 398.455 397.82C397.415 397.82 396.582 397.48 395.955 396.8C395.342 396.107 395.035 395.1 395.035 393.78C395.035 393.1 395.162 392.44 395.415 391.8C395.668 391.147 396.015 390.56 396.455 390.04C396.895 389.52 397.402 389.107 397.975 388.8C398.562 388.48 399.175 388.32 399.815 388.32C400.388 388.32 400.915 388.44 401.395 388.68C401.888 388.92 402.262 389.313 402.515 389.86C402.515 389.553 402.508 389.287 402.495 389.06C402.495 388.833 402.495 388.647 402.495 388.5C402.495 388.38 402.602 388.32 402.815 388.32C402.988 388.32 403.175 388.373 403.375 388.48C403.575 388.573 403.675 388.693 403.675 388.84V388.86C403.662 389.113 403.642 389.42 403.615 389.78C403.602 390.14 403.595 390.493 403.595 390.84V397C403.595 397.96 403.368 398.773 402.915 399.44C402.475 400.107 401.882 400.607 401.135 400.94C400.402 401.287 399.595 401.46 398.715 401.46C397.982 401.46 397.382 401.36 396.915 401.16C396.448 400.973 396.082 400.753 395.815 400.5C395.562 400.247 395.382 400.013 395.275 399.8C395.168 399.6 395.115 399.493 395.115 399.48C395.115 399.307 395.195 399.133 395.355 398.96C395.515 398.787 395.668 398.7 395.815 398.7C395.935 398.7 396.022 398.767 396.075 398.9C396.328 399.46 396.655 399.853 397.055 400.08C397.468 400.32 398.022 400.44 398.715 400.44C399.408 400.44 400.042 400.313 400.615 400.06C401.188 399.807 401.648 399.42 401.995 398.9C402.342 398.393 402.515 397.753 402.515 396.98V395.32ZM402.515 390.2C402.475 390.267 402.415 390.333 402.335 390.4C402.255 390.467 402.175 390.5 402.095 390.5C402.028 390.5 401.968 390.467 401.915 390.4C401.622 390.013 401.295 389.733 400.935 389.56C400.575 389.387 400.208 389.3 399.835 389.3C399.342 389.3 398.868 389.433 398.415 389.7C397.975 389.953 397.582 390.3 397.235 390.74C396.902 391.18 396.635 391.667 396.435 392.2C396.248 392.72 396.155 393.24 396.155 393.76C396.155 394.84 396.362 395.62 396.775 396.1C397.202 396.58 397.762 396.82 398.455 396.82C398.948 396.82 399.468 396.693 400.015 396.44C400.562 396.187 401.055 395.813 401.495 395.32C401.948 394.827 402.255 394.227 402.415 393.52C402.468 393.347 402.495 393.047 402.495 392.62C402.508 392.18 402.515 391.707 402.515 391.2V390.2ZM407.837 393.98V394.04C407.837 395.133 408.083 395.953 408.577 396.5C409.083 397.047 409.677 397.32 410.357 397.32C411.223 397.32 412.01 397.167 412.717 396.86C413.437 396.54 414.063 396.093 414.597 395.52C414.757 395.347 414.897 395.26 415.017 395.26C415.123 395.26 415.177 395.327 415.177 395.46C415.177 395.58 415.077 395.793 414.877 396.1C414.677 396.407 414.377 396.733 413.977 397.08C413.59 397.413 413.09 397.707 412.477 397.96C411.877 398.2 411.17 398.32 410.357 398.32C409.677 398.32 409.063 398.153 408.517 397.82C407.983 397.473 407.557 396.987 407.237 396.36C406.917 395.72 406.757 394.967 406.757 394.1V393.8C406.477 393.613 406.337 393.413 406.337 393.2C406.337 393.04 406.45 392.96 406.677 392.96C406.703 392.96 406.743 392.96 406.797 392.96C406.863 392.947 406.897 392.94 406.897 392.94C406.977 392.46 407.157 391.953 407.437 391.42C407.73 390.887 408.097 390.387 408.537 389.92C408.977 389.453 409.477 389.073 410.037 388.78C410.597 388.473 411.203 388.32 411.857 388.32C412.67 388.32 413.317 388.46 413.797 388.74C414.277 389.02 414.617 389.38 414.817 389.82C415.03 390.26 415.137 390.72 415.137 391.2C415.137 391.587 415.09 391.907 414.997 392.16C414.903 392.413 414.717 392.633 414.437 392.82C414.17 392.993 413.77 393.167 413.237 393.34C412.637 393.513 411.903 393.667 411.037 393.8C410.17 393.92 409.183 393.98 408.077 393.98H407.837ZM408.397 393C409.41 393 410.27 392.947 410.977 392.84C411.697 392.733 412.283 392.613 412.737 392.48C413.15 392.36 413.443 392.247 413.617 392.14C413.803 392.033 413.923 391.907 413.977 391.76C414.03 391.613 414.057 391.42 414.057 391.18C414.057 390.593 413.863 390.133 413.477 389.8C413.09 389.453 412.543 389.28 411.837 389.28C411.343 389.28 410.877 389.407 410.437 389.66C409.997 389.9 409.603 390.213 409.257 390.6C408.923 390.987 408.643 391.393 408.417 391.82C408.19 392.247 408.043 392.64 407.977 393H408.397ZM429.696 392.14C429.696 391.327 429.529 390.653 429.196 390.12C428.876 389.587 428.416 389.32 427.816 389.32C427.403 389.32 426.976 389.473 426.536 389.78C426.109 390.087 425.743 390.493 425.436 391C425.143 391.493 424.996 392.04 424.996 392.64V395.9C424.996 396.273 425.003 396.667 425.016 397.08C425.043 397.48 425.056 397.793 425.056 398.02C425.056 398.14 424.956 398.2 424.756 398.2C424.583 398.2 424.396 398.147 424.196 398.04C423.996 397.947 423.896 397.82 423.896 397.66C423.896 397.553 423.896 397.393 423.896 397.18C423.909 396.953 423.916 396.72 423.916 396.48C423.929 396.24 423.936 396.047 423.936 395.9V392.14C423.936 391.353 423.823 390.687 423.596 390.14C423.383 389.593 422.969 389.32 422.356 389.32C422.103 389.32 421.796 389.387 421.436 389.52C421.089 389.653 420.749 389.907 420.416 390.28C420.083 390.653 419.809 391.2 419.596 391.92C419.436 392.467 419.343 393.1 419.316 393.82C419.303 394.527 419.289 395.22 419.276 395.9C419.276 396.313 419.283 396.713 419.296 397.1C419.323 397.487 419.336 397.793 419.336 398.02C419.336 398.14 419.236 398.2 419.036 398.2C418.863 398.2 418.669 398.147 418.456 398.04C418.256 397.947 418.156 397.82 418.156 397.66C418.156 397.553 418.156 397.38 418.156 397.14C418.169 396.887 418.176 396.64 418.176 396.4C418.189 396.16 418.196 395.993 418.196 395.9V390.88C418.196 390.747 418.189 390.527 418.176 390.22C418.163 389.913 418.149 389.6 418.136 389.28C418.136 388.947 418.136 388.707 418.136 388.56C418.136 388.44 418.236 388.38 418.436 388.38C418.623 388.38 418.816 388.433 419.016 388.54C419.216 388.633 419.316 388.76 419.316 388.92C419.316 389.08 419.309 389.307 419.296 389.6C419.296 389.88 419.296 390.173 419.296 390.48C419.563 389.813 419.983 389.287 420.556 388.9C421.143 388.513 421.743 388.32 422.356 388.32C423.129 388.32 423.703 388.52 424.076 388.92C424.463 389.307 424.703 389.753 424.796 390.26C425.129 389.633 425.576 389.153 426.136 388.82C426.709 388.487 427.289 388.32 427.876 388.32C428.569 388.32 429.123 388.507 429.536 388.88C429.963 389.24 430.276 389.707 430.476 390.28C430.676 390.84 430.776 391.433 430.776 392.06V395.9C430.776 395.98 430.776 396.16 430.776 396.44C430.789 396.72 430.803 397.013 430.816 397.32C430.829 397.627 430.836 397.86 430.836 398.02C430.836 398.14 430.736 398.2 430.536 398.2C430.363 398.2 430.169 398.147 429.956 398.04C429.756 397.947 429.656 397.82 429.656 397.66C429.656 397.553 429.656 397.393 429.656 397.18C429.669 396.953 429.676 396.72 429.676 396.48C429.689 396.24 429.696 396.047 429.696 395.9V392.14ZM435.024 393.98V394.04C435.024 395.133 435.271 395.953 435.764 396.5C436.271 397.047 436.864 397.32 437.544 397.32C438.411 397.32 439.197 397.167 439.904 396.86C440.624 396.54 441.251 396.093 441.784 395.52C441.944 395.347 442.084 395.26 442.204 395.26C442.311 395.26 442.364 395.327 442.364 395.46C442.364 395.58 442.264 395.793 442.064 396.1C441.864 396.407 441.564 396.733 441.164 397.08C440.777 397.413 440.277 397.707 439.664 397.96C439.064 398.2 438.357 398.32 437.544 398.32C436.864 398.32 436.251 398.153 435.704 397.82C435.171 397.473 434.744 396.987 434.424 396.36C434.104 395.72 433.944 394.967 433.944 394.1V393.8C433.664 393.613 433.524 393.413 433.524 393.2C433.524 393.04 433.637 392.96 433.864 392.96C433.891 392.96 433.931 392.96 433.984 392.96C434.051 392.947 434.084 392.94 434.084 392.94C434.164 392.46 434.344 391.953 434.624 391.42C434.917 390.887 435.284 390.387 435.724 389.92C436.164 389.453 436.664 389.073 437.224 388.78C437.784 388.473 438.391 388.32 439.044 388.32C439.857 388.32 440.504 388.46 440.984 388.74C441.464 389.02 441.804 389.38 442.004 389.82C442.217 390.26 442.324 390.72 442.324 391.2C442.324 391.587 442.277 391.907 442.184 392.16C442.091 392.413 441.904 392.633 441.624 392.82C441.357 392.993 440.957 393.167 440.424 393.34C439.824 393.513 439.091 393.667 438.224 393.8C437.357 393.92 436.371 393.98 435.264 393.98H435.024ZM435.584 393C436.597 393 437.457 392.947 438.164 392.84C438.884 392.733 439.471 392.613 439.924 392.48C440.337 392.36 440.631 392.247 440.804 392.14C440.991 392.033 441.111 391.907 441.164 391.76C441.217 391.613 441.244 391.42 441.244 391.18C441.244 390.593 441.051 390.133 440.664 389.8C440.277 389.453 439.731 389.28 439.024 389.28C438.531 389.28 438.064 389.407 437.624 389.66C437.184 389.9 436.791 390.213 436.444 390.6C436.111 390.987 435.831 391.393 435.604 391.82C435.377 392.247 435.231 392.64 435.164 393H435.584ZM452.323 392.12C452.323 391.587 452.27 391.113 452.163 390.7C452.07 390.287 451.89 389.96 451.623 389.72C451.37 389.48 450.99 389.36 450.483 389.36C450.017 389.36 449.537 389.46 449.043 389.66C448.55 389.86 448.103 390.173 447.703 390.6C447.303 391.013 447.003 391.56 446.803 392.24C446.643 392.773 446.55 393.373 446.523 394.04C446.51 394.693 446.497 395.313 446.483 395.9V396.18C446.483 396.553 446.49 396.907 446.503 397.24C446.53 397.56 446.543 397.82 446.543 398.02C446.543 398.14 446.443 398.2 446.243 398.2C446.07 398.2 445.877 398.147 445.663 398.04C445.463 397.947 445.363 397.82 445.363 397.66C445.363 397.553 445.363 397.38 445.363 397.14C445.377 396.887 445.383 396.64 445.383 396.4C445.397 396.16 445.403 395.993 445.403 395.9V390.7C445.403 390.567 445.397 390.36 445.383 390.08C445.37 389.8 445.357 389.513 445.343 389.22C445.343 388.927 445.343 388.707 445.343 388.56C445.343 388.44 445.443 388.38 445.643 388.38C445.83 388.38 446.023 388.433 446.223 388.54C446.423 388.633 446.523 388.76 446.523 388.92C446.523 389.027 446.523 389.2 446.523 389.44C446.523 389.667 446.517 389.907 446.503 390.16C446.503 390.413 446.503 390.633 446.503 390.82C446.77 390.273 447.117 389.82 447.543 389.46C447.983 389.087 448.457 388.807 448.963 388.62C449.483 388.42 449.99 388.32 450.483 388.32C451.123 388.32 451.637 388.44 452.023 388.68C452.41 388.907 452.703 389.207 452.903 389.58C453.103 389.953 453.237 390.36 453.303 390.8C453.37 391.227 453.403 391.64 453.403 392.04V395.9C453.403 395.98 453.41 396.16 453.423 396.44C453.437 396.72 453.443 397.013 453.443 397.32C453.457 397.627 453.463 397.86 453.463 398.02C453.463 398.14 453.363 398.2 453.163 398.2C452.99 398.2 452.797 398.147 452.583 398.04C452.383 397.947 452.283 397.82 452.283 397.66C452.283 397.553 452.283 397.393 452.283 397.18C452.297 396.953 452.303 396.72 452.303 396.48C452.317 396.24 452.323 396.047 452.323 395.9V392.12ZM461.601 396.22C461.761 396.113 461.888 396.06 461.981 396.06C462.101 396.06 462.161 396.12 462.161 396.24C462.161 396.347 462.081 396.513 461.921 396.74C461.761 396.967 461.548 397.2 461.281 397.44C461.028 397.68 460.741 397.887 460.421 398.06C460.101 398.233 459.775 398.32 459.441 398.32C458.748 398.32 458.281 398.113 458.041 397.7C457.801 397.273 457.681 396.64 457.681 395.8V389.36H457.601C457.308 389.373 457.021 389.393 456.741 389.42C456.461 389.433 456.321 389.44 456.321 389.44C456.148 389.44 456.001 389.353 455.881 389.18C455.761 388.993 455.701 388.833 455.701 388.7C455.701 388.567 455.768 388.5 455.901 388.5H457.681V387.44C457.681 387.307 457.675 387.1 457.661 386.82C457.661 386.54 457.655 386.253 457.641 385.96C457.641 385.667 457.641 385.447 457.641 385.3C457.641 385.18 457.741 385.12 457.941 385.12C458.115 385.12 458.301 385.173 458.501 385.28C458.701 385.373 458.801 385.5 458.801 385.66C458.801 385.767 458.795 385.933 458.781 386.16C458.781 386.373 458.775 386.6 458.761 386.84C458.761 387.08 458.761 387.28 458.761 387.44V388.44L459.361 388.42C459.601 388.407 459.881 388.387 460.201 388.36C460.521 388.333 460.748 388.313 460.881 388.3H460.901C461.061 388.3 461.201 388.387 461.321 388.56C461.441 388.72 461.501 388.873 461.501 389.02C461.501 389.18 461.435 389.26 461.301 389.26C461.168 389.26 460.915 389.26 460.541 389.26C460.168 389.26 459.848 389.267 459.581 389.28L458.761 389.32V395.84C458.761 396.4 458.815 396.773 458.921 396.96C459.028 397.147 459.228 397.24 459.521 397.24C459.801 397.24 460.115 397.153 460.461 396.98C460.808 396.807 461.155 396.58 461.501 396.3L461.601 396.22ZM356.58 414.44C356.807 416.52 357 418.26 357.16 419.66C357.333 421.047 357.48 422.167 357.6 423.02C357.72 423.873 357.82 424.54 357.9 425.02C357.98 425.487 358.047 425.84 358.1 426.08C358.153 426.307 358.207 426.493 358.26 426.64C358.26 426.653 358.26 426.667 358.26 426.68C358.273 426.693 358.28 426.707 358.28 426.72C358.28 426.84 358.193 426.933 358.02 427C357.847 427.067 357.667 427.1 357.48 427.1C357.32 427.1 357.18 427.073 357.06 427.02C356.94 426.967 356.873 426.887 356.86 426.78C356.847 426.5 356.833 426.26 356.82 426.06C356.807 425.847 356.787 425.593 356.76 425.3C356.693 424.687 356.607 423.94 356.5 423.06C356.393 422.167 356.273 421.213 356.14 420.2C356.02 419.187 355.9 418.187 355.78 417.2C355.673 416.213 355.573 415.32 355.48 414.52C355.44 414.587 355.333 414.813 355.16 415.2C354.987 415.573 354.767 416.047 354.5 416.62C354.233 417.18 353.947 417.8 353.64 418.48C353.333 419.147 353.027 419.82 352.72 420.5C352.413 421.167 352.133 421.793 351.88 422.38C351.64 422.953 351.44 423.433 351.28 423.82C351.133 424.207 351.06 424.44 351.06 424.52C351.047 424.68 350.947 424.813 350.76 424.92C350.573 425.027 350.387 425.08 350.2 425.08C350.08 425.08 349.967 425.053 349.86 425C349.767 424.947 349.707 424.873 349.68 424.78C349.613 424.567 349.533 424.34 349.44 424.1C349.36 423.86 349.3 423.7 349.26 423.62C349.06 423.14 348.807 422.54 348.5 421.82C348.193 421.1 347.867 420.327 347.52 419.5C347.173 418.66 346.833 417.833 346.5 417.02C346.167 416.193 345.873 415.44 345.62 414.76C345.42 416.453 345.247 417.9 345.1 419.1C344.953 420.287 344.833 421.287 344.74 422.1C344.647 422.913 344.567 423.58 344.5 424.1C344.447 424.607 344.4 425.02 344.36 425.34C344.333 425.647 344.307 425.907 344.28 426.12C344.267 426.333 344.253 426.547 344.24 426.76C344.227 426.88 344.133 426.967 343.96 427.02C343.787 427.087 343.607 427.12 343.42 427.12C343.273 427.12 343.147 427.1 343.04 427.06C342.933 427.02 342.88 426.96 342.88 426.88V426.82C342.987 426.447 343.093 425.947 343.2 425.32C343.307 424.68 343.413 423.973 343.52 423.2C343.64 422.413 343.747 421.607 343.84 420.78C343.947 419.94 344.04 419.133 344.12 418.36C344.213 417.587 344.293 416.887 344.36 416.26C344.427 415.633 344.473 415.14 344.5 414.78C344.54 414.407 344.56 414.22 344.56 414.22C344.56 414.113 344.553 414.027 344.54 413.96C344.54 413.88 344.54 413.807 344.54 413.74C344.54 413.713 344.54 413.68 344.54 413.64C344.54 413.6 344.547 413.567 344.56 413.54C344.587 413.393 344.707 413.267 344.92 413.16C345.147 413.04 345.373 412.98 345.6 412.98C345.787 412.98 345.913 413.02 345.98 413.1C346.047 413.167 346.147 413.36 346.28 413.68C346.6 414.48 346.94 415.327 347.3 416.22C347.66 417.1 348.02 417.98 348.38 418.86C348.753 419.74 349.1 420.573 349.42 421.36C349.753 422.133 350.053 422.813 350.32 423.4C350.76 422.373 351.233 421.287 351.74 420.14C352.247 418.98 352.76 417.833 353.28 416.7C353.8 415.567 354.293 414.52 354.76 413.56C354.84 413.387 354.92 413.22 355 413.06C355.08 412.887 355.227 412.8 355.44 412.8C355.573 412.8 355.733 412.84 355.92 412.92C356.12 412.987 356.293 413.073 356.44 413.18C356.6 413.273 356.68 413.367 356.68 413.46C356.68 413.593 356.66 413.727 356.62 413.86C356.593 413.98 356.58 414.127 356.58 414.3V414.44ZM368.849 417.86C368.809 418.153 368.769 418.547 368.729 419.04C368.703 419.52 368.676 420.033 368.649 420.58C368.636 421.113 368.623 421.613 368.609 422.08C368.596 422.547 368.589 422.9 368.589 423.14C368.589 423.313 368.596 423.587 368.609 423.96C368.636 424.32 368.696 424.713 368.789 425.14C368.896 425.567 369.063 425.96 369.289 426.32C369.316 426.373 369.329 426.42 369.329 426.46C369.329 426.607 369.256 426.773 369.109 426.96C368.976 427.133 368.816 427.22 368.629 427.22C368.496 427.22 368.363 427.127 368.229 426.94C368.109 426.74 367.996 426.493 367.889 426.2C367.796 425.893 367.716 425.587 367.649 425.28C367.583 424.973 367.543 424.707 367.529 424.48C367.049 425.453 366.436 426.173 365.689 426.64C364.956 427.093 364.209 427.32 363.449 427.32C362.489 427.32 361.716 427 361.129 426.36C360.556 425.707 360.269 424.753 360.269 423.5C360.269 422.66 360.409 421.867 360.689 421.12C360.983 420.373 361.363 419.713 361.829 419.14C362.309 418.567 362.836 418.12 363.409 417.8C363.996 417.48 364.583 417.32 365.169 417.32C365.663 417.32 366.129 417.44 366.569 417.68C367.023 417.92 367.356 418.293 367.569 418.8C367.583 418.493 367.589 418.227 367.589 418C367.603 417.76 367.609 417.593 367.609 417.5C367.609 417.38 367.723 417.32 367.949 417.32C368.136 417.32 368.329 417.367 368.529 417.46C368.743 417.553 368.849 417.673 368.849 417.82V417.86ZM367.569 419.28C367.543 419.333 367.489 419.38 367.409 419.42C367.343 419.46 367.276 419.48 367.209 419.48C367.129 419.48 367.069 419.453 367.029 419.4C366.776 419.013 366.483 418.733 366.149 418.56C365.816 418.373 365.496 418.28 365.189 418.28C364.749 418.28 364.303 418.413 363.849 418.68C363.409 418.933 363.003 419.293 362.629 419.76C362.256 420.227 361.956 420.773 361.729 421.4C361.516 422.013 361.409 422.68 361.409 423.4C361.409 424.427 361.603 425.173 361.989 425.64C362.376 426.093 362.863 426.32 363.449 426.32C364.116 426.32 364.749 426.107 365.349 425.68C365.963 425.253 366.469 424.653 366.869 423.88C367.269 423.107 367.489 422.207 367.529 421.18C367.543 420.98 367.549 420.7 367.549 420.34C367.549 419.967 367.556 419.613 367.569 419.28ZM379.213 424.36C378.613 425.387 377.96 426.14 377.253 426.62C376.547 427.087 375.8 427.32 375.013 427.32C374.053 427.32 373.273 426.973 372.673 426.28C372.073 425.573 371.773 424.573 371.773 423.28C371.773 422.493 371.907 421.747 372.173 421.04C372.44 420.32 372.807 419.68 373.273 419.12C373.74 418.56 374.267 418.12 374.853 417.8C375.453 417.48 376.073 417.32 376.713 417.32C377.22 417.32 377.687 417.427 378.113 417.64C378.553 417.84 378.9 418.173 379.153 418.64V415.14C379.153 414.727 379.147 414.327 379.133 413.94C379.12 413.553 379.113 413.247 379.113 413.02C379.113 412.9 379.213 412.84 379.413 412.84C379.587 412.84 379.773 412.893 379.973 413C380.173 413.093 380.273 413.22 380.273 413.38C380.273 413.54 380.267 413.793 380.253 414.14C380.24 414.473 380.233 414.813 380.233 415.16V423.3C380.233 423.887 380.293 424.46 380.413 425.02C380.533 425.567 380.7 425.973 380.913 426.24C380.94 426.267 380.953 426.32 380.953 426.4C380.953 426.547 380.88 426.72 380.733 426.92C380.587 427.107 380.427 427.2 380.253 427.2C380.107 427.2 379.953 427.06 379.793 426.78C379.633 426.5 379.493 426.153 379.373 425.74C379.267 425.313 379.213 424.88 379.213 424.44V424.36ZM379.153 419.32C379.087 419.427 378.987 419.48 378.853 419.48C378.773 419.48 378.713 419.447 378.673 419.38C378.42 418.98 378.12 418.7 377.773 418.54C377.44 418.367 377.093 418.28 376.733 418.28C376.187 418.28 375.68 418.427 375.213 418.72C374.747 419.013 374.34 419.4 373.993 419.88C373.647 420.36 373.373 420.893 373.173 421.48C372.987 422.053 372.893 422.633 372.893 423.22C372.893 424.273 373.1 425.053 373.513 425.56C373.94 426.067 374.44 426.32 375.013 426.32C375.48 426.32 375.953 426.193 376.433 425.94C376.913 425.673 377.36 425.313 377.773 424.86C378.187 424.407 378.52 423.893 378.773 423.32C379.027 422.733 379.153 422.12 379.153 421.48V419.32ZM384.477 422.98V423.04C384.477 424.133 384.724 424.953 385.217 425.5C385.724 426.047 386.317 426.32 386.997 426.32C387.864 426.32 388.651 426.167 389.357 425.86C390.077 425.54 390.704 425.093 391.237 424.52C391.397 424.347 391.537 424.26 391.657 424.26C391.764 424.26 391.817 424.327 391.817 424.46C391.817 424.58 391.717 424.793 391.517 425.1C391.317 425.407 391.017 425.733 390.617 426.08C390.231 426.413 389.731 426.707 389.117 426.96C388.517 427.2 387.811 427.32 386.997 427.32C386.317 427.32 385.704 427.153 385.157 426.82C384.624 426.473 384.197 425.987 383.877 425.36C383.557 424.72 383.397 423.967 383.397 423.1V422.8C383.117 422.613 382.977 422.413 382.977 422.2C382.977 422.04 383.091 421.96 383.317 421.96C383.344 421.96 383.384 421.96 383.437 421.96C383.504 421.947 383.537 421.94 383.537 421.94C383.617 421.46 383.797 420.953 384.077 420.42C384.371 419.887 384.737 419.387 385.177 418.92C385.617 418.453 386.117 418.073 386.677 417.78C387.237 417.473 387.844 417.32 388.497 417.32C389.311 417.32 389.957 417.46 390.437 417.74C390.917 418.02 391.257 418.38 391.457 418.82C391.671 419.26 391.777 419.72 391.777 420.2C391.777 420.587 391.731 420.907 391.637 421.16C391.544 421.413 391.357 421.633 391.077 421.82C390.811 421.993 390.411 422.167 389.877 422.34C389.277 422.513 388.544 422.667 387.677 422.8C386.811 422.92 385.824 422.98 384.717 422.98H384.477ZM385.037 422C386.051 422 386.911 421.947 387.617 421.84C388.337 421.733 388.924 421.613 389.377 421.48C389.791 421.36 390.084 421.247 390.257 421.14C390.444 421.033 390.564 420.907 390.617 420.76C390.671 420.613 390.697 420.42 390.697 420.18C390.697 419.593 390.504 419.133 390.117 418.8C389.731 418.453 389.184 418.28 388.477 418.28C387.984 418.28 387.517 418.407 387.077 418.66C386.637 418.9 386.244 419.213 385.897 419.6C385.564 419.987 385.284 420.393 385.057 420.82C384.831 421.247 384.684 421.64 384.617 422H385.037ZM404.669 419.5C403.709 419.273 402.942 418.933 402.369 418.48C401.795 418.027 401.509 417.36 401.509 416.48C401.509 415.84 401.715 415.24 402.129 414.68C402.542 414.12 403.102 413.667 403.809 413.32C404.529 412.96 405.342 412.78 406.249 412.78C406.995 412.78 407.682 412.893 408.309 413.12C408.949 413.347 409.462 413.613 409.849 413.92C410.235 414.213 410.429 414.48 410.429 414.72C410.429 414.72 410.409 414.793 410.369 414.94C410.342 415.087 410.295 415.233 410.229 415.38C410.162 415.527 410.069 415.6 409.949 415.6C409.855 415.6 409.769 415.56 409.689 415.48C409.609 415.387 409.535 415.313 409.469 415.26C409.029 414.74 408.502 414.38 407.889 414.18C407.289 413.967 406.762 413.86 406.309 413.86C405.615 413.86 404.995 413.993 404.449 414.26C403.915 414.513 403.489 414.847 403.169 415.26C402.862 415.66 402.709 416.08 402.709 416.52C402.709 417.053 402.909 417.473 403.309 417.78C403.709 418.073 404.335 418.313 405.189 418.5L407.349 419.06C408.629 419.393 409.575 419.893 410.189 420.56C410.815 421.227 411.129 422.093 411.129 423.16C411.129 423.933 410.929 424.633 410.529 425.26C410.129 425.887 409.542 426.387 408.769 426.76C408.009 427.133 407.082 427.32 405.989 427.32C404.882 427.32 403.922 427.133 403.109 426.76C402.295 426.387 401.575 425.853 400.949 425.16C400.882 425.093 400.849 424.993 400.849 424.86C400.849 424.647 400.929 424.44 401.089 424.24C401.249 424.04 401.409 423.94 401.569 423.94C401.662 423.94 401.735 423.987 401.789 424.08C402.109 424.6 402.462 425.007 402.849 425.3C403.249 425.593 403.649 425.807 404.049 425.94C404.449 426.073 404.822 426.16 405.169 426.2C405.515 426.227 405.795 426.24 406.009 426.24C406.755 426.24 407.422 426.107 408.009 425.84C408.609 425.573 409.082 425.22 409.429 424.78C409.775 424.327 409.949 423.84 409.949 423.32C409.949 422.467 409.722 421.793 409.269 421.3C408.815 420.793 408.062 420.4 407.009 420.12L404.669 419.5ZM415.033 414.96C414.779 414.96 414.553 414.847 414.353 414.62C414.166 414.38 414.073 414.14 414.073 413.9C414.073 413.647 414.133 413.447 414.253 413.3C414.386 413.153 414.579 413.08 414.833 413.08C415.059 413.08 415.273 413.2 415.473 413.44C415.673 413.667 415.773 413.913 415.773 414.18C415.773 414.7 415.526 414.96 415.033 414.96ZM414.393 419.64C414.393 419.507 414.386 419.3 414.373 419.02C414.359 418.74 414.346 418.453 414.333 418.16C414.333 417.867 414.333 417.647 414.333 417.5C414.333 417.393 414.433 417.34 414.633 417.34C414.819 417.34 415.013 417.393 415.213 417.5C415.426 417.593 415.533 417.713 415.533 417.86C415.533 417.967 415.526 418.133 415.513 418.36C415.513 418.573 415.506 418.8 415.493 419.04C415.493 419.28 415.493 419.48 415.493 419.64V424.9C415.493 424.98 415.499 425.16 415.513 425.44C415.526 425.72 415.533 426.013 415.533 426.32C415.546 426.627 415.553 426.86 415.553 427.02C415.553 427.127 415.453 427.18 415.252 427.18C415.079 427.18 414.886 427.127 414.673 427.02C414.459 426.927 414.353 426.807 414.353 426.66C414.353 426.553 414.353 426.38 414.353 426.14C414.366 425.887 414.373 425.64 414.373 425.4C414.386 425.16 414.393 424.993 414.393 424.9V419.64ZM430.926 421.14C430.926 420.327 430.76 419.653 430.426 419.12C430.106 418.587 429.646 418.32 429.046 418.32C428.633 418.32 428.206 418.473 427.766 418.78C427.34 419.087 426.973 419.493 426.666 420C426.373 420.493 426.226 421.04 426.226 421.64V424.9C426.226 425.273 426.233 425.667 426.246 426.08C426.273 426.48 426.286 426.793 426.286 427.02C426.286 427.14 426.186 427.2 425.986 427.2C425.813 427.2 425.626 427.147 425.426 427.04C425.226 426.947 425.126 426.82 425.126 426.66C425.126 426.553 425.126 426.393 425.126 426.18C425.14 425.953 425.146 425.72 425.146 425.48C425.16 425.24 425.166 425.047 425.166 424.9V421.14C425.166 420.353 425.053 419.687 424.826 419.14C424.613 418.593 424.2 418.32 423.586 418.32C423.333 418.32 423.026 418.387 422.666 418.52C422.32 418.653 421.98 418.907 421.646 419.28C421.313 419.653 421.04 420.2 420.826 420.92C420.666 421.467 420.573 422.1 420.546 422.82C420.533 423.527 420.52 424.22 420.506 424.9C420.506 425.313 420.513 425.713 420.526 426.1C420.553 426.487 420.566 426.793 420.566 427.02C420.566 427.14 420.466 427.2 420.266 427.2C420.093 427.2 419.9 427.147 419.686 427.04C419.486 426.947 419.386 426.82 419.386 426.66C419.386 426.553 419.386 426.38 419.386 426.14C419.4 425.887 419.406 425.64 419.406 425.4C419.42 425.16 419.426 424.993 419.426 424.9V419.88C419.426 419.747 419.42 419.527 419.406 419.22C419.393 418.913 419.38 418.6 419.366 418.28C419.366 417.947 419.366 417.707 419.366 417.56C419.366 417.44 419.466 417.38 419.666 417.38C419.853 417.38 420.046 417.433 420.246 417.54C420.446 417.633 420.546 417.76 420.546 417.92C420.546 418.08 420.54 418.307 420.526 418.6C420.526 418.88 420.526 419.173 420.526 419.48C420.793 418.813 421.213 418.287 421.786 417.9C422.373 417.513 422.973 417.32 423.586 417.32C424.36 417.32 424.933 417.52 425.306 417.92C425.693 418.307 425.933 418.753 426.026 419.26C426.36 418.633 426.806 418.153 427.366 417.82C427.94 417.487 428.52 417.32 429.106 417.32C429.8 417.32 430.353 417.507 430.766 417.88C431.193 418.24 431.506 418.707 431.706 419.28C431.906 419.84 432.006 420.433 432.006 421.06V424.9C432.006 424.98 432.006 425.16 432.006 425.44C432.02 425.72 432.033 426.013 432.046 426.32C432.06 426.627 432.066 426.86 432.066 427.02C432.066 427.14 431.966 427.2 431.766 427.2C431.593 427.2 431.4 427.147 431.186 427.04C430.986 426.947 430.886 426.82 430.886 426.66C430.886 426.553 430.886 426.393 430.886 426.18C430.9 425.953 430.906 425.72 430.906 425.48C430.92 425.24 430.926 425.047 430.926 424.9V421.14ZM435.775 419.64C435.775 419.227 435.768 418.833 435.755 418.46C435.741 418.087 435.728 417.787 435.715 417.56C435.715 417.44 435.815 417.38 436.015 417.38C436.201 417.38 436.395 417.433 436.595 417.54C436.808 417.633 436.915 417.76 436.915 417.92C436.915 418 436.908 418.14 436.895 418.34C436.895 418.54 436.895 418.753 436.895 418.98C436.895 419.207 436.888 419.4 436.875 419.56C436.875 419.72 436.875 419.8 436.875 419.8C437.101 419.307 437.421 418.873 437.835 418.5C438.248 418.127 438.715 417.84 439.235 417.64C439.755 417.427 440.275 417.32 440.795 417.32C441.875 417.32 442.708 417.68 443.295 418.4C443.881 419.12 444.175 420.133 444.175 421.44C444.175 422.2 444.061 422.933 443.835 423.64C443.608 424.333 443.288 424.96 442.875 425.52C442.475 426.067 441.988 426.5 441.415 426.82C440.855 427.14 440.235 427.3 439.555 427.3C439.048 427.3 438.535 427.187 438.015 426.96C437.508 426.72 437.121 426.373 436.855 425.92V428.12C436.855 428.533 436.861 428.933 436.875 429.32C436.901 429.707 436.915 430.013 436.915 430.24C436.915 430.36 436.815 430.42 436.615 430.42C436.441 430.42 436.248 430.367 436.035 430.26C435.835 430.167 435.735 430.04 435.735 429.88C435.735 429.72 435.741 429.467 435.755 429.12C435.768 428.787 435.775 428.447 435.775 428.1V419.64ZM436.855 425C436.908 424.973 436.955 424.96 436.995 424.96C437.061 424.96 437.135 424.987 437.215 425.04C437.295 425.08 437.368 425.153 437.435 425.26C437.701 425.633 438.008 425.907 438.355 426.08C438.701 426.253 439.055 426.34 439.415 426.34C440.135 426.34 440.768 426.113 441.315 425.66C441.861 425.193 442.288 424.593 442.595 423.86C442.901 423.127 443.055 422.353 443.055 421.54C443.055 420.473 442.848 419.673 442.435 419.14C442.021 418.593 441.475 418.32 440.795 418.32C440.235 418.32 439.681 418.48 439.135 418.8C438.601 419.107 438.135 419.533 437.735 420.08C437.348 420.627 437.081 421.253 436.935 421.96C436.895 422.133 436.868 422.513 436.855 423.1C436.855 423.687 436.855 424.32 436.855 425ZM447.42 415.2C447.42 415.067 447.413 414.86 447.4 414.58C447.387 414.3 447.373 414.013 447.36 413.72C447.36 413.427 447.36 413.207 447.36 413.06C447.36 412.94 447.467 412.88 447.68 412.88C447.853 412.88 448.04 412.933 448.24 413.04C448.453 413.133 448.56 413.26 448.56 413.42C448.56 413.527 448.553 413.693 448.54 413.92C448.54 414.133 448.533 414.36 448.52 414.6C448.52 414.84 448.52 415.04 448.52 415.2V424.9C448.52 424.98 448.527 425.16 448.54 425.44C448.553 425.72 448.56 426.013 448.56 426.32C448.573 426.627 448.58 426.86 448.58 427.02C448.58 427.14 448.473 427.2 448.26 427.2C448.087 427.2 447.893 427.147 447.68 427.04C447.48 426.947 447.38 426.82 447.38 426.66C447.38 426.553 447.38 426.38 447.38 426.14C447.393 425.887 447.4 425.64 447.4 425.4C447.413 425.16 447.42 424.993 447.42 424.9V415.2ZM452.954 422.98V423.04C452.954 424.133 453.2 424.953 453.694 425.5C454.2 426.047 454.794 426.32 455.474 426.32C456.34 426.32 457.127 426.167 457.834 425.86C458.554 425.54 459.18 425.093 459.714 424.52C459.874 424.347 460.014 424.26 460.134 424.26C460.24 424.26 460.294 424.327 460.294 424.46C460.294 424.58 460.194 424.793 459.994 425.1C459.794 425.407 459.494 425.733 459.094 426.08C458.707 426.413 458.207 426.707 457.594 426.96C456.994 427.2 456.287 427.32 455.474 427.32C454.794 427.32 454.18 427.153 453.634 426.82C453.1 426.473 452.674 425.987 452.354 425.36C452.034 424.72 451.874 423.967 451.874 423.1V422.8C451.594 422.613 451.454 422.413 451.454 422.2C451.454 422.04 451.567 421.96 451.794 421.96C451.82 421.96 451.86 421.96 451.914 421.96C451.98 421.947 452.014 421.94 452.014 421.94C452.094 421.46 452.274 420.953 452.554 420.42C452.847 419.887 453.214 419.387 453.654 418.92C454.094 418.453 454.594 418.073 455.154 417.78C455.714 417.473 456.32 417.32 456.974 417.32C457.787 417.32 458.434 417.46 458.914 417.74C459.394 418.02 459.734 418.38 459.934 418.82C460.147 419.26 460.254 419.72 460.254 420.2C460.254 420.587 460.207 420.907 460.114 421.16C460.02 421.413 459.834 421.633 459.554 421.82C459.287 421.993 458.887 422.167 458.354 422.34C457.754 422.513 457.02 422.667 456.154 422.8C455.287 422.92 454.3 422.98 453.194 422.98H452.954ZM453.514 422C454.527 422 455.387 421.947 456.094 421.84C456.814 421.733 457.4 421.613 457.854 421.48C458.267 421.36 458.56 421.247 458.734 421.14C458.92 421.033 459.04 420.907 459.094 420.76C459.147 420.613 459.174 420.42 459.174 420.18C459.174 419.593 458.98 419.133 458.594 418.8C458.207 418.453 457.66 418.28 456.954 418.28C456.46 418.28 455.994 418.407 455.554 418.66C455.114 418.9 454.72 419.213 454.374 419.6C454.04 419.987 453.76 420.393 453.534 420.82C453.307 421.247 453.16 421.64 453.094 422H453.514Z" fill="black"/>
<rect x="518" y="402" width="15" height="15" fill="#3434A7"/>
<rect x="519" y="427" width="15" height="15" fill="#3434A7"/>
<path d="M519 375H534V390H519V375Z" fill="#3434A7"/>
<rect x="518" y="349" width="15" height="15" fill="#3434A7"/>
<path d="M522 430C522.201 431.808 523.815 433.339 524 435C524.234 437.106 525 443.397 525 441.278C525 433.213 529.792 426.312 534 420" stroke="#FFFEFE" stroke-width="2" stroke-linecap="round"/>
<path d="M522 381C522.201 382.808 523.815 384.339 524 386C524.234 388.106 525 394.397 525 392.278C525 384.213 529.792 377.312 534 371" stroke="#FFFEFE" stroke-width="2" stroke-linecap="round"/>
<path d="M522 408C522.201 409.808 523.815 411.339 524 413C524.234 415.106 525 421.397 525 419.278C525 411.213 529.792 404.312 534 398" stroke="#FFFEFE" stroke-width="2" stroke-linecap="round"/>
<path d="M521 356C521.201 357.808 522.815 359.339 523 361C523.234 363.106 524 369.397 524 367.278C524 359.213 528.792 352.312 533 346" stroke="#FFFEFE" stroke-width="2" stroke-linecap="round"/>
</svg>
