<svg width="140" height="50" viewBox="0 0 140 50" fill="none" xmlns="http://www.w3.org/2000/svg">
<path d="M66.3075 37.4826L64.2401 32.3859L52.9646 32.3959L50.8721 37.4959L47.2285 37.4992L56.9705 14.7713L60.5798 14.768L70.1226 37.4784L66.3067 37.4817L66.3075 37.4826ZM54.0623 29.6584L63.1374 29.6501L58.6237 18.5334L54.0614 29.6576L54.0623 29.6584ZM82.5983 20.2234C82.805 20.2234 83.0451 20.2234 83.2852 20.2567L83.2543 23.6784C82.6351 23.5417 82.2227 23.4401 81.6044 23.4401C79.3697 23.4417 76.7928 24.8817 76.797 29.3642L76.8045 37.4734L73.3667 37.4767L73.3517 20.8822L76.6514 20.4347L76.6548 24.0955C77.5123 21.8705 79.23 20.2272 82.5992 20.2238H82.5983V20.2234ZM96.6679 20.2101C100.552 20.2067 102.893 22.6676 102.897 26.4659L102.907 37.4492L99.4346 37.4526L99.4254 27.0167C99.4229 24.4842 97.978 22.9801 95.3309 22.9826C92.7523 22.9851 90.6582 25.2792 90.6607 28.1876L90.6691 37.4601L87.2304 37.4634L87.2154 20.8688L90.5151 20.4213L90.5176 23.3297C91.6505 21.5838 93.6091 20.213 96.6687 20.2105H96.6679V20.2101ZM107.027 15.0688L109.741 12.5005L112.424 15.0647L109.746 17.5647L107.028 15.0697L107.027 15.0688ZM108.045 37.4451L108.03 20.8505L111.467 20.403L111.482 37.4426L108.045 37.4459L108.045 37.4451ZM121.393 20.7359L127.718 20.7301L131.191 20.2826L131.206 37.4247L127.734 37.428L127.722 23.2284L121.397 23.2342L121.409 37.4338L117.972 37.4372L117.96 23.2376L114.866 23.2401L114.863 20.7426L117.957 20.7401L117.956 19.2001C117.953 16.0526 119.771 13.2109 124.963 13.2059C127.402 13.2034 129.741 13.9201 131.634 15.3901L129.298 17.5817C128.025 16.5567 126.649 15.8051 124.965 15.8067C122.386 15.8092 121.391 17.3501 121.393 19.1976L121.394 20.7376L121.393 20.7359Z" fill="white"/>
<path d="M24.7447 16.1181V8.74056C24.7447 8.31222 24.1666 8.17555 23.9725 8.55722L19.0279 18.3156C18.8522 18.6622 19.2186 19.0339 19.5692 18.8647L24.5138 16.4839C24.6552 16.4164 24.7447 16.2739 24.7447 16.1181Z" fill="white"/>
<path d="M25.4531 16.1181V8.74056C25.4531 8.31222 26.0312 8.17555 26.2254 8.55722L31.17 18.3156C31.3457 18.6622 30.9792 19.0339 30.6286 18.8647L25.684 16.4839C25.5426 16.4164 25.4531 16.2739 25.4531 16.1181Z" fill="white"/>
<path d="M25.4551 33.8826V41.2601C25.4551 41.6876 26.0332 41.8251 26.2273 41.4434L31.1727 31.6851C31.3484 31.3384 30.982 30.9668 30.6314 31.1359L25.686 33.5168C25.5454 33.5843 25.4559 33.7268 25.4559 33.8826H25.4551Z" fill="white"/>
<path d="M24.7447 33.8826V41.2601C24.7447 41.6876 24.1666 41.8251 23.9725 41.4434L19.0279 31.6851C18.8522 31.3384 19.2186 30.9668 19.5692 31.1359L24.5138 33.5168C24.6543 33.5843 24.7447 33.7268 24.7447 33.8826Z" fill="white"/>
<path d="M34.0167 24.6462H41.4236C41.8536 24.6462 41.9908 24.0703 41.6077 23.877L31.8105 18.952C31.4624 18.777 31.0893 19.142 31.2591 19.4912L33.6494 24.4162C33.7172 24.5562 33.8603 24.6453 34.0167 24.6453V24.6462Z" fill="white"/>
<path d="M34.0167 25.3545H41.4236C41.8536 25.3545 41.9908 25.9303 41.6077 26.1237L31.8105 31.0487C31.4624 31.2237 31.0893 30.8587 31.2591 30.5095L33.6494 25.5845C33.7172 25.4445 33.8603 25.3553 34.0167 25.3553V25.3545Z" fill="white"/>
<path d="M16.1827 25.3545H8.77587C8.34583 25.3545 8.20862 25.9303 8.5918 26.1237L18.389 31.0487C18.737 31.2237 19.1102 30.8587 18.9403 30.5095L16.55 25.5845C16.4823 25.4445 16.3392 25.3553 16.1827 25.3553V25.3545Z" fill="white"/>
<path d="M16.1827 24.6462H8.77587C8.34583 24.6462 8.20862 24.0703 8.5918 23.877L18.389 18.952C18.737 18.777 19.1102 19.142 18.9403 19.4912L16.55 24.4162C16.4823 24.5562 16.3392 24.6453 16.1827 24.6453V24.6462Z" fill="white"/>
</svg>
