<svg width="34" height="34" viewBox="0 0 34 34" fill="none" xmlns="http://www.w3.org/2000/svg">
<path d="M28.5552 29.1988C28.4637 29.3655 28.3292 29.5045 28.1657 29.6015C28.0022 29.6984 27.8156 29.7497 27.6255 29.75H21.2505C21.0717 29.7499 20.8958 29.7048 20.7391 29.6186C20.5824 29.5325 20.4499 29.4082 20.354 29.2573L14.9765 20.8064L7.16177 29.402C6.97126 29.6067 6.70778 29.728 6.42844 29.7396C6.1491 29.7513 5.87641 29.6524 5.6695 29.4644C5.46259 29.2763 5.33814 29.0143 5.32312 28.7352C5.3081 28.456 5.40373 28.1821 5.58927 27.973L13.7931 18.9417L5.47903 5.88359C5.37664 5.72295 5.31931 5.53773 5.31307 5.34732C5.30683 5.15692 5.35189 4.96834 5.44354 4.80133C5.53519 4.63432 5.67006 4.49503 5.83402 4.39803C5.99799 4.30104 6.18501 4.24991 6.37552 4.25H12.7505C12.9293 4.25006 13.1053 4.29524 13.262 4.38138C13.4187 4.46751 13.5511 4.5918 13.647 4.74273L19.0246 13.1936L26.8393 4.59797C27.0298 4.39333 27.2933 4.27202 27.5726 4.26035C27.8519 4.24868 28.1246 4.34759 28.3315 4.53562C28.5384 4.72366 28.6629 4.98567 28.6779 5.26485C28.6929 5.54403 28.5973 5.81788 28.4118 6.02703L20.2079 15.0516L28.522 28.1177C28.6238 28.2785 28.6806 28.4636 28.6865 28.6537C28.6923 28.8439 28.647 29.0322 28.5552 29.1988Z" fill="black"/>
</svg>
